<?xml version="1.0" encoding="UTF-8" standalone="no"?><!DOCTYPE svg PUBLIC "-//W3C//DTD SVG 1.1//EN" "http://www.w3.org/Graphics/SVG/1.1/DTD/svg11.dtd"><svg width="100%" height="100%" viewBox="0 0 317 264" version="1.1" xmlns="http://www.w3.org/2000/svg" xmlns:xlink="http://www.w3.org/1999/xlink" xml:space="preserve" xmlns:serif="http://www.serif.com/" style="fill-rule:evenodd;clip-rule:evenodd;stroke-linecap:round;stroke-linejoin:round;stroke-miterlimit:1.5;"><rect id="covid" x="0" y="0" width="317" height="264" style="fill:none;"/><g opacity="0.77"><ellipse cx="145.5" cy="133.5" rx="126.5" ry="127.5" style="fill:#fff;"/><ellipse cx="145.5" cy="133.5" rx="126.5" ry="127.5" style="fill:#788cb0;fill-opacity:0.14;"/><ellipse cx="145.5" cy="133.5" rx="126.5" ry="127.5" style="fill:none;stroke:#0021ff;stroke-opacity:0.27;stroke-width:2.71px;"/></g><g><path d="M117.285,215.41c-0.399,0.97 -0.61,0.97 -0.958,0.97c-0.76,-0.042 -1.504,-0.227 -2.193,-0.547c-2.547,-1.047 -2.319,-1.601 -1.942,-2.517c0.808,-0.813 1.773,-1.452 2.837,-1.878c0.374,-0.198 0.766,-0.406 1.17,-0.626c0.132,0.441 0.264,0.864 0.39,1.267c0.457,1.051 0.694,2.185 0.696,3.331Z" style="fill:#fff;"/><path d="M82.332,204.114c-0.367,3.952 -0.603,5.911 -1.953,7.261c-0.938,1.116 -2.28,1.815 -3.732,1.944c-2.244,-0.334 -4.286,-1.486 -5.731,-3.235c-5.377,-5.376 -2.719,-8.035 -1.291,-9.463c1.35,-1.349 3.309,-1.586 7.261,-1.952c1.849,-0.172 3.946,-0.366 6.24,-0.794c-0.428,2.293 -0.623,4.39 -0.794,6.239Z" style="fill:#fff;"/><path d="M69.517,165.925c-0.426,1.064 -1.065,2.03 -1.878,2.838c-0.301,0.141 -0.626,0.224 -0.959,0.245c-0.273,0 -0.938,-0.678 -1.558,-2.187c-0.435,-0.774 -0.613,-1.666 -0.506,-2.547c0.033,-0.1 0.315,-0.352 0.929,-0.604c0.092,-0.04 0.192,-0.058 0.293,-0.053c1.038,0.133 2.057,0.385 3.038,0.749c0.397,0.124 0.82,0.256 1.268,0.389c-0.221,0.405 -0.429,0.796 -0.627,1.17Z" style="fill:#fff;"/><path d="M51.073,136.351c-3.053,2.535 -4.606,3.753 -6.515,3.753c-2.02,0 -5.779,0 -5.779,-7.604c0,-7.604 3.759,-7.604 5.779,-7.604c1.909,0 3.462,1.218 6.515,3.754c1.428,1.186 3.049,2.531 4.973,3.85c-1.924,1.319 -3.545,2.665 -4.973,3.851Z" style="fill:#fff;"/><path d="M51.073,136.351c-3.053,2.535 -4.606,3.753 -6.515,3.753c-2.02,0 -5.779,0 -5.779,-7.604c0,-7.604 3.759,-7.604 5.779,-7.604c1.909,0 3.462,1.218 6.515,3.754c1.428,1.186 3.049,2.531 4.973,3.85c-1.924,1.319 -3.545,2.665 -4.973,3.851Z" style="fill:#788cb0;fill-opacity:0.27;"/><path d="M68.875,100.799c-0.981,0.365 -2,0.616 -3.038,0.749c-0.1,0.004 -0.2,-0.014 -0.292,-0.053c-0.614,-0.253 -0.896,-0.504 -0.929,-0.604c-0.107,-0.881 0.071,-1.773 0.506,-2.547c0.62,-1.509 1.285,-2.187 1.558,-2.187c0.332,0.021 0.657,0.104 0.959,0.246c0.813,0.807 1.452,1.773 1.877,2.837c0.199,0.374 0.406,0.765 0.628,1.17c-0.449,0.133 -0.871,0.265 -1.269,0.389Z" style="fill:#fff;"/><path d="M68.875,100.799c-0.981,0.365 -2,0.616 -3.038,0.749c-0.1,0.004 -0.2,-0.014 -0.292,-0.053c-0.614,-0.253 -0.896,-0.504 -0.929,-0.604c-0.107,-0.881 0.071,-1.773 0.506,-2.547c0.62,-1.509 1.285,-2.187 1.558,-2.187c0.332,0.021 0.657,0.104 0.959,0.246c0.813,0.807 1.452,1.773 1.877,2.837c0.199,0.374 0.406,0.765 0.628,1.17c-0.449,0.133 -0.871,0.265 -1.269,0.389Z" style="fill:#788cb0;fill-opacity:0.27;"/><path d="M69.625,64.379c-1.428,-1.428 -4.086,-4.086 1.291,-9.463c1.445,-1.749 3.487,-2.901 5.732,-3.235c1.451,0.13 2.793,0.829 3.731,1.944c1.35,1.35 1.586,3.309 1.953,7.261c0.171,1.849 0.366,3.946 0.794,6.239c-2.294,-0.427 -4.391,-0.622 -6.24,-0.793c-3.952,-0.367 -5.911,-0.603 -7.261,-1.953Z" style="fill:#fff;"/><path d="M140.896,28.558c0,-2.019 0,-5.779 7.604,-5.779c7.604,0 7.604,3.76 7.604,5.779c0,1.909 -1.218,3.462 -3.754,6.515c-1.185,1.428 -2.531,3.049 -3.85,4.973c-1.319,-1.924 -2.664,-3.545 -3.85,-4.973c-2.535,-3.053 -3.754,-4.606 -3.754,-6.515Z" style="fill:#fff;"/><path d="M112.192,51.85c-0.377,-0.917 -0.605,-1.471 1.942,-2.518c0.69,-0.32 1.434,-0.505 2.193,-0.547c0.349,0 0.559,0 0.958,0.97c-0.002,1.146 -0.239,2.28 -0.696,3.331c-0.126,0.404 -0.258,0.826 -0.39,1.268c-0.404,-0.221 -0.796,-0.429 -1.17,-0.627c-1.064,-0.425 -2.029,-1.064 -2.837,-1.877Z" style="fill:#fff;"/><path d="M148.503,201.933c-38.301,-0 -69.35,-31.049 -69.35,-69.35c0,-38.3 31.049,-69.349 69.35,-69.349c38.301,-0 69.35,31.049 69.35,69.349c-0.044,38.283 -31.068,69.306 -69.35,69.35Z" style="fill:#fff;"/><path d="M148.503,201.933c-38.301,-0 -69.35,-31.049 -69.35,-69.35c0,-38.3 31.049,-69.349 69.35,-69.349c38.301,-0 69.35,31.049 69.35,69.349c-0.044,38.283 -31.068,69.306 -69.35,69.35Z" style="fill:#788cb1;fill-opacity:0.27;"/><path d="M182.611,153.598c-3.189,-0 -5.775,3.447 -5.775,7.7c0,4.253 2.586,7.7 5.775,7.7c3.19,0 5.775,-3.447 5.775,-7.7c0,-2.042 -0.608,-4 -1.691,-5.445c-1.082,-1.446 -2.552,-2.258 -4.084,-2.255Zm0.787,8.75c-0.434,0.58 -1.139,0.58 -1.574,0c-0.435,-0.58 -0.435,-1.52 -0.001,-2.1c0.431,-0.587 1.136,-0.596 1.576,-0.023c0.439,0.574 0.447,1.515 0.017,2.101c-0.006,0.008 -0.012,0.015 -0.018,0.022Z"/><path d="M197.395,124.954c-3.189,-0 -5.775,3.447 -5.775,7.7c0,4.253 2.586,7.7 5.775,7.7c3.19,0 5.775,-3.447 5.775,-7.7c0,-2.042 -0.608,-4 -1.691,-5.445c-1.082,-1.446 -2.552,-2.258 -4.084,-2.255Zm0.787,8.75c-0.434,0.58 -1.139,0.58 -1.574,0c-0.435,-0.58 -0.435,-1.52 -0.001,-2.1c0.431,-0.587 1.136,-0.596 1.576,-0.023c0.439,0.574 0.447,1.515 0.017,2.101c-0.006,0.008 -0.012,0.015 -0.018,0.022Z"/><path d="M179.459,49.755c0.4,-0.97 0.611,-0.97 0.959,-0.97c0.759,0.042 1.503,0.228 2.193,0.547c2.546,1.047 2.318,1.601 1.942,2.517c-0.808,0.814 -1.774,1.453 -2.838,1.878c-0.374,0.198 -0.765,0.406 -1.17,0.627c-0.131,-0.442 -0.263,-0.864 -0.389,-1.268c-0.458,-1.051 -0.694,-2.185 -0.697,-3.331Z" style="fill:#fff;"/><path d="M214.668,60.886c0.367,-3.952 0.603,-5.911 1.953,-7.261c0.939,-1.116 2.281,-1.814 3.733,-1.944c2.244,0.334 4.285,1.486 5.731,3.235c1.659,1.411 2.795,3.339 3.225,5.474c0.033,0.475 0.134,1.92 -1.935,3.989c-1.35,1.35 -3.309,1.586 -7.261,1.953c-1.848,0.171 -3.946,0.366 -6.239,0.793c0.427,-2.293 0.622,-4.391 0.793,-6.239Z" style="fill:#fff;"/><path d="M227.228,99.24c0.425,-1.064 1.064,-2.03 1.877,-2.838c0.302,-0.141 0.627,-0.224 0.96,-0.245c0.273,-0 0.937,0.678 1.557,2.187c1.048,2.546 0.494,2.774 -0.423,3.151c-0.092,0.039 -0.192,0.057 -0.291,0.053c-1.038,-0.133 -2.058,-0.384 -3.039,-0.749c-0.397,-0.124 -0.82,-0.256 -1.268,-0.389c0.221,-0.405 0.428,-0.796 0.627,-1.17Z" style="fill:#fff;"/><path d="M252.442,140.104c-1.909,0 -3.461,-1.218 -6.515,-3.753c-1.428,-1.186 -3.049,-2.532 -4.973,-3.851c1.924,-1.319 3.545,-2.664 4.973,-3.85c3.054,-2.535 4.606,-3.754 6.515,-3.754c2.02,0 5.779,0 5.779,7.604c0,7.604 -3.759,7.604 -5.779,7.604Z" style="fill:#fff;"/><path d="M230.908,163.617c0.099,-0.004 0.2,0.014 0.291,0.053c0.918,0.377 1.471,0.605 0.424,3.151c-0.621,1.509 -1.285,2.187 -1.559,2.187c-0.332,-0.021 -0.657,-0.104 -0.959,-0.245c-0.813,-0.808 -1.452,-1.774 -1.877,-2.838c-0.199,-0.374 -0.406,-0.765 -0.627,-1.17c0.448,-0.133 0.871,-0.265 1.268,-0.389c0.981,-0.365 2.001,-0.616 3.039,-0.749Z" style="fill:#fff;"/><path d="M227.375,200.621c2.07,2.07 1.968,3.514 1.935,3.989c-0.429,2.135 -1.566,4.064 -3.225,5.474c-1.446,1.749 -3.487,2.901 -5.732,3.235c-1.452,-0.129 -2.793,-0.828 -3.732,-1.944c-1.349,-1.349 -1.586,-3.309 -1.953,-7.261c-0.171,-1.848 -0.366,-3.946 -0.793,-6.239c2.293,0.428 4.391,0.622 6.239,0.794c3.952,0.366 5.911,0.603 7.261,1.952Z" style="fill:#fff;"/><path d="M184.552,213.315c0.377,0.917 0.605,1.471 -1.941,2.518c-0.69,0.32 -1.434,0.505 -2.193,0.547c-0.348,-0 -0.559,-0 -0.958,-0.97c0.002,-1.146 0.238,-2.28 0.696,-3.331c0.126,-0.403 0.258,-0.826 0.389,-1.267c0.405,0.22 0.796,0.428 1.17,0.626c1.064,0.426 2.029,1.065 2.837,1.877Z" style="fill:#fff;"/><path d="M156.104,236.442c0,2.02 -0,5.779 -7.604,5.779c-7.604,0 -7.604,-3.759 -7.604,-5.779c0,-1.909 1.219,-3.462 3.754,-6.515c1.185,-1.428 2.531,-3.049 3.85,-4.973c1.319,1.924 2.665,3.545 3.85,4.973c2.536,3.053 3.754,4.606 3.754,6.515Z" style="fill:#fff;"/><path d="M252.442,140.104c-1.909,0 -3.461,-1.218 -6.515,-3.753c-1.428,-1.186 -3.049,-2.532 -4.973,-3.851c1.924,-1.319 3.545,-2.664 4.973,-3.85c3.054,-2.535 4.606,-3.754 6.515,-3.754c2.02,0 5.779,0 5.779,7.604c0,7.604 -3.759,7.604 -5.779,7.604Z" style="fill:#fff;"/><path d="M252.442,140.104c-1.909,0 -3.461,-1.218 -6.515,-3.753c-1.428,-1.186 -3.049,-2.532 -4.973,-3.851c1.924,-1.319 3.545,-2.664 4.973,-3.85c3.054,-2.535 4.606,-3.754 6.515,-3.754c2.02,0 5.779,0 5.779,7.604c0,7.604 -3.759,7.604 -5.779,7.604Z" style="fill:#788cb0;fill-opacity:0.27;"/><path d="M179.459,49.755c0.4,-0.97 0.611,-0.97 0.959,-0.97c0.759,0.042 1.503,0.228 2.193,0.547c2.546,1.047 2.318,1.601 1.942,2.517c-0.808,0.814 -1.774,1.453 -2.838,1.878c-0.374,0.198 -0.765,0.406 -1.17,0.627c-0.131,-0.442 -0.263,-0.864 -0.389,-1.268c-0.458,-1.051 -0.694,-2.185 -0.697,-3.331Z" style="fill:#fff;"/><path d="M179.459,49.755c0.4,-0.97 0.611,-0.97 0.959,-0.97c0.759,0.042 1.503,0.228 2.193,0.547c2.546,1.047 2.318,1.601 1.942,2.517c-0.808,0.814 -1.774,1.453 -2.838,1.878c-0.374,0.198 -0.765,0.406 -1.17,0.627c-0.131,-0.442 -0.263,-0.864 -0.389,-1.268c-0.458,-1.051 -0.694,-2.185 -0.697,-3.331Z" style="fill:#788cb0;fill-opacity:0.27;"/><path d="M214.668,60.886c0.367,-3.952 0.603,-5.911 1.953,-7.261c0.939,-1.116 2.281,-1.814 3.733,-1.944c2.244,0.334 4.285,1.486 5.731,3.235c1.659,1.411 2.795,3.339 3.225,5.474c0.033,0.475 0.134,1.92 -1.935,3.989c-1.35,1.35 -3.309,1.586 -7.261,1.953c-1.848,0.171 -3.946,0.366 -6.239,0.793c0.427,-2.293 0.622,-4.391 0.793,-6.239Z" style="fill:#fff;"/><path d="M214.668,60.886c0.367,-3.952 0.603,-5.911 1.953,-7.261c0.939,-1.116 2.281,-1.814 3.733,-1.944c2.244,0.334 4.285,1.486 5.731,3.235c1.659,1.411 2.795,3.339 3.225,5.474c0.033,0.475 0.134,1.92 -1.935,3.989c-1.35,1.35 -3.309,1.586 -7.261,1.953c-1.848,0.171 -3.946,0.366 -6.239,0.793c0.427,-2.293 0.622,-4.391 0.793,-6.239Z" style="fill:#788cb0;fill-opacity:0.27;"/><path d="M227.228,99.24c0.425,-1.064 1.064,-2.03 1.877,-2.838c0.302,-0.141 0.627,-0.224 0.96,-0.245c0.273,-0 0.937,0.678 1.557,2.187c1.048,2.546 0.494,2.774 -0.423,3.151c-0.092,0.039 -0.192,0.057 -0.291,0.053c-1.038,-0.133 -2.058,-0.384 -3.039,-0.749c-0.397,-0.124 -0.82,-0.256 -1.268,-0.389c0.221,-0.405 0.428,-0.796 0.627,-1.17Z" style="fill:#fff;"/><path d="M227.228,99.24c0.425,-1.064 1.064,-2.03 1.877,-2.838c0.302,-0.141 0.627,-0.224 0.96,-0.245c0.273,-0 0.937,0.678 1.557,2.187c1.048,2.546 0.494,2.774 -0.423,3.151c-0.092,0.039 -0.192,0.057 -0.291,0.053c-1.038,-0.133 -2.058,-0.384 -3.039,-0.749c-0.397,-0.124 -0.82,-0.256 -1.268,-0.389c0.221,-0.405 0.428,-0.796 0.627,-1.17Z" style="fill:#788cb0;fill-opacity:0.27;"/><path d="M230.908,163.617c0.099,-0.004 0.2,0.014 0.291,0.053c0.918,0.377 1.471,0.605 0.424,3.151c-0.621,1.509 -1.285,2.187 -1.559,2.187c-0.332,-0.021 -0.657,-0.104 -0.959,-0.245c-0.813,-0.808 -1.452,-1.774 -1.877,-2.838c-0.199,-0.374 -0.406,-0.765 -0.627,-1.17c0.448,-0.133 0.871,-0.265 1.268,-0.389c0.981,-0.365 2.001,-0.616 3.039,-0.749Z" style="fill:#fff;"/><path d="M230.908,163.617c0.099,-0.004 0.2,0.014 0.291,0.053c0.918,0.377 1.471,0.605 0.424,3.151c-0.621,1.509 -1.285,2.187 -1.559,2.187c-0.332,-0.021 -0.657,-0.104 -0.959,-0.245c-0.813,-0.808 -1.452,-1.774 -1.877,-2.838c-0.199,-0.374 -0.406,-0.765 -0.627,-1.17c0.448,-0.133 0.871,-0.265 1.268,-0.389c0.981,-0.365 2.001,-0.616 3.039,-0.749Z" style="fill:#788cb0;fill-opacity:0.27;"/><path d="M227.375,200.621c2.07,2.07 1.968,3.514 1.935,3.989c-0.429,2.135 -1.566,4.064 -3.225,5.474c-1.446,1.749 -3.487,2.901 -5.732,3.235c-1.452,-0.129 -2.793,-0.828 -3.732,-1.944c-1.349,-1.349 -1.586,-3.309 -1.953,-7.261c-0.171,-1.848 -0.366,-3.946 -0.793,-6.239c2.293,0.428 4.391,0.622 6.239,0.794c3.952,0.366 5.911,0.603 7.261,1.952Z" style="fill:#fff;"/><path d="M227.375,200.621c2.07,2.07 1.968,3.514 1.935,3.989c-0.429,2.135 -1.566,4.064 -3.225,5.474c-1.446,1.749 -3.487,2.901 -5.732,3.235c-1.452,-0.129 -2.793,-0.828 -3.732,-1.944c-1.349,-1.349 -1.586,-3.309 -1.953,-7.261c-0.171,-1.848 -0.366,-3.946 -0.793,-6.239c2.293,0.428 4.391,0.622 6.239,0.794c3.952,0.366 5.911,0.603 7.261,1.952Z" style="fill:#788cb0;fill-opacity:0.27;"/><path d="M184.552,213.315c0.377,0.917 0.605,1.471 -1.941,2.518c-0.69,0.32 -1.434,0.505 -2.193,0.547c-0.348,-0 -0.559,-0 -0.958,-0.97c0.002,-1.146 0.238,-2.28 0.696,-3.331c0.126,-0.403 0.258,-0.826 0.389,-1.267c0.405,0.22 0.796,0.428 1.17,0.626c1.064,0.426 2.029,1.065 2.837,1.877Z" style="fill:#fff;"/><path d="M184.552,213.315c0.377,0.917 0.605,1.471 -1.941,2.518c-0.69,0.32 -1.434,0.505 -2.193,0.547c-0.348,-0 -0.559,-0 -0.958,-0.97c0.002,-1.146 0.238,-2.28 0.696,-3.331c0.126,-0.403 0.258,-0.826 0.389,-1.267c0.405,0.22 0.796,0.428 1.17,0.626c1.064,0.426 2.029,1.065 2.837,1.877Z" style="fill:#788cb0;fill-opacity:0.27;"/><path d="M156.104,236.442c0,2.02 -0,5.779 -7.604,5.779c-7.604,0 -7.604,-3.759 -7.604,-5.779c0,-1.909 1.219,-3.462 3.754,-6.515c1.185,-1.428 2.531,-3.049 3.85,-4.973c1.319,1.924 2.665,3.545 3.85,4.973c2.536,3.053 3.754,4.606 3.754,6.515Z" style="fill:#fff;"/><path d="M156.104,236.442c0,2.02 -0,5.779 -7.604,5.779c-7.604,0 -7.604,-3.759 -7.604,-5.779c0,-1.909 1.219,-3.462 3.754,-6.515c1.185,-1.428 2.531,-3.049 3.85,-4.973c1.319,1.924 2.665,3.545 3.85,4.973c2.536,3.053 3.754,4.606 3.754,6.515Z" style="fill:#788cb0;fill-opacity:0.27;"/><path d="M140.896,28.558c0,-2.019 0,-5.779 7.604,-5.779c7.604,0 7.604,3.76 7.604,5.779c0,1.909 -1.218,3.462 -3.754,6.515c-1.185,1.428 -2.531,3.049 -3.85,4.973c-1.319,-1.924 -2.664,-3.545 -3.85,-4.973c-2.535,-3.053 -3.754,-4.606 -3.754,-6.515Z" style="fill:#fff;"/><path d="M140.896,28.558c0,-2.019 0,-5.779 7.604,-5.779c7.604,0 7.604,3.76 7.604,5.779c0,1.909 -1.218,3.462 -3.754,6.515c-1.185,1.428 -2.531,3.049 -3.85,4.973c-1.319,-1.924 -2.664,-3.545 -3.85,-4.973c-2.535,-3.053 -3.754,-4.606 -3.754,-6.515Z" style="fill:#788cb0;fill-opacity:0.27;"/><path d="M112.192,51.85c-0.377,-0.917 -0.605,-1.471 1.942,-2.518c0.69,-0.32 1.434,-0.505 2.193,-0.547c0.349,0 0.559,0 0.958,0.97c-0.002,1.146 -0.239,2.28 -0.696,3.331c-0.126,0.404 -0.258,0.826 -0.39,1.268c-0.404,-0.221 -0.796,-0.429 -1.17,-0.627c-1.064,-0.425 -2.029,-1.064 -2.837,-1.877Z" style="fill:#fff;"/><path d="M112.192,51.85c-0.377,-0.917 -0.605,-1.471 1.942,-2.518c0.69,-0.32 1.434,-0.505 2.193,-0.547c0.349,0 0.559,0 0.958,0.97c-0.002,1.146 -0.239,2.28 -0.696,3.331c-0.126,0.404 -0.258,0.826 -0.39,1.268c-0.404,-0.221 -0.796,-0.429 -1.17,-0.627c-1.064,-0.425 -2.029,-1.064 -2.837,-1.877Z" style="fill:#788cb0;fill-opacity:0.27;"/><path d="M69.625,64.379c-1.428,-1.428 -4.086,-4.086 1.291,-9.463c1.445,-1.749 3.487,-2.901 5.732,-3.235c1.451,0.13 2.793,0.829 3.731,1.944c1.35,1.35 1.586,3.309 1.953,7.261c0.171,1.849 0.366,3.946 0.794,6.239c-2.294,-0.427 -4.391,-0.622 -6.24,-0.793c-3.952,-0.367 -5.911,-0.603 -7.261,-1.953Z" style="fill:#fff;"/><path d="M69.625,64.379c-1.428,-1.428 -4.086,-4.086 1.291,-9.463c1.445,-1.749 3.487,-2.901 5.732,-3.235c1.451,0.13 2.793,0.829 3.731,1.944c1.35,1.35 1.586,3.309 1.953,7.261c0.171,1.849 0.366,3.946 0.794,6.239c-2.294,-0.427 -4.391,-0.622 -6.24,-0.793c-3.952,-0.367 -5.911,-0.603 -7.261,-1.953Z" style="fill:#788cb0;fill-opacity:0.27;"/><path d="M117.285,215.41c-0.399,0.97 -0.61,0.97 -0.958,0.97c-0.76,-0.042 -1.504,-0.227 -2.193,-0.547c-2.547,-1.047 -2.319,-1.601 -1.942,-2.517c0.808,-0.813 1.773,-1.452 2.837,-1.878c0.374,-0.198 0.766,-0.406 1.17,-0.626c0.132,0.441 0.264,0.864 0.39,1.267c0.457,1.051 0.694,2.185 0.696,3.331Z" style="fill:#fff;"/><path d="M117.285,215.41c-0.399,0.97 -0.61,0.97 -0.958,0.97c-0.76,-0.042 -1.504,-0.227 -2.193,-0.547c-2.547,-1.047 -2.319,-1.601 -1.942,-2.517c0.808,-0.813 1.773,-1.452 2.837,-1.878c0.374,-0.198 0.766,-0.406 1.17,-0.626c0.132,0.441 0.264,0.864 0.39,1.267c0.457,1.051 0.694,2.185 0.696,3.331Z" style="fill:#788cb0;fill-opacity:0.27;"/><path d="M82.332,204.114c-0.367,3.952 -0.603,5.911 -1.953,7.261c-0.938,1.116 -2.28,1.815 -3.732,1.944c-2.244,-0.334 -4.286,-1.486 -5.731,-3.235c-5.377,-5.376 -2.719,-8.035 -1.291,-9.463c1.35,-1.349 3.309,-1.586 7.261,-1.952c1.849,-0.172 3.946,-0.366 6.24,-0.794c-0.428,2.293 -0.623,4.39 -0.794,6.239Z" style="fill:#fff;"/><path d="M82.332,204.114c-0.367,3.952 -0.603,5.911 -1.953,7.261c-0.938,1.116 -2.28,1.815 -3.732,1.944c-2.244,-0.334 -4.286,-1.486 -5.731,-3.235c-5.377,-5.376 -2.719,-8.035 -1.291,-9.463c1.35,-1.349 3.309,-1.586 7.261,-1.952c1.849,-0.172 3.946,-0.366 6.24,-0.794c-0.428,2.293 -0.623,4.39 -0.794,6.239Z" style="fill:#788cb0;fill-opacity:0.27;"/><path d="M69.517,165.925c-0.426,1.064 -1.065,2.03 -1.878,2.838c-0.301,0.141 -0.626,0.224 -0.959,0.245c-0.273,0 -0.938,-0.678 -1.558,-2.187c-0.435,-0.774 -0.613,-1.666 -0.506,-2.547c0.033,-0.1 0.315,-0.352 0.929,-0.604c0.092,-0.04 0.192,-0.058 0.293,-0.053c1.038,0.133 2.057,0.385 3.038,0.749c0.397,0.124 0.82,0.256 1.268,0.389c-0.221,0.405 -0.429,0.796 -0.627,1.17Z" style="fill:#fff;"/><path d="M69.517,165.925c-0.426,1.064 -1.065,2.03 -1.878,2.838c-0.301,0.141 -0.626,0.224 -0.959,0.245c-0.273,0 -0.938,-0.678 -1.558,-2.187c-0.435,-0.774 -0.613,-1.666 -0.506,-2.547c0.033,-0.1 0.315,-0.352 0.929,-0.604c0.092,-0.04 0.192,-0.058 0.293,-0.053c1.038,0.133 2.057,0.385 3.038,0.749c0.397,0.124 0.82,0.256 1.268,0.389c-0.221,0.405 -0.429,0.796 -0.627,1.17Z" style="fill:#788cb0;fill-opacity:0.27;"/><path d="M252.442,119.117c-6.72,0 -9.989,6.295 -17.839,10.477l-11.047,0.002c-0.299,-7.843 -1.833,-15.59 -4.545,-22.956l3.312,-1.362c2.802,0.913 5.672,1.599 8.585,2.049c0.854,0.005 1.7,-0.161 2.489,-0.487c4.359,-1.793 5.672,-5.583 3.571,-10.694c-1.57,-3.815 -3.973,-5.769 -6.904,-5.768c-1.086,0.018 -2.159,0.249 -3.157,0.679c-3.465,1.426 -4.2,5.051 -6.746,8.86l-3.376,1.389c-3.337,-7.255 -7.806,-13.933 -13.24,-19.785l7.824,-7.827c8.541,-2.628 15.328,-0.464 20.093,-5.229c5.226,-5.226 4.839,-11.506 -1.291,-17.636c-2.485,-2.885 -6.019,-4.659 -9.818,-4.927c-2.992,0.1 -5.814,1.413 -7.818,3.637c-4.751,4.751 -2.612,11.514 -5.206,20.022l-7.873,7.877c-5.868,-5.427 -12.563,-9.885 -19.832,-13.208l1.414,-3.436c3.809,-2.546 7.434,-3.281 8.859,-6.746c1.793,-4.358 0.023,-7.959 -5.088,-10.061c-1.386,-0.608 -2.877,-0.942 -4.391,-0.981c-2.871,-0.028 -5.427,1.817 -6.303,4.551c-1.43,3.479 0.651,6.561 1.562,11.08l-1.391,3.376c-7.354,-2.687 -15.086,-4.201 -22.91,-4.486l-0.003,-11.066c4.181,-7.896 10.51,-11.165 10.51,-17.903c0,-7.391 -4.714,-11.558 -13.383,-11.558c-8.669,-0 -13.383,4.167 -13.383,11.558c0,6.72 6.296,9.989 10.477,17.84l0.002,11.13c-7.894,0.293 -15.693,1.837 -23.103,4.573l-1.425,-3.463c0.91,-4.519 2.993,-7.602 1.562,-11.081c-0.877,-2.734 -3.432,-4.579 -6.303,-4.551c-1.514,0.039 -3.005,0.373 -4.391,0.981c-5.112,2.102 -6.881,5.703 -5.089,10.061c1.425,3.464 5.049,4.2 8.858,6.745l1.456,3.538c-7.195,3.317 -13.822,7.748 -19.636,13.13l-7.831,-7.828c-2.629,-8.541 -0.464,-15.329 -5.229,-20.095c-2.003,-2.224 -4.826,-3.537 -7.818,-3.636c-3.799,0.268 -7.333,2.042 -9.818,4.927c-6.13,6.13 -6.517,12.41 -1.29,17.636c4.751,4.752 11.513,2.612 20.021,5.206l7.878,7.875c-5.446,5.87 -9.921,12.571 -13.258,19.85l-3.597,-1.479c-2.545,-3.809 -3.281,-7.434 -6.746,-8.86c-0.998,-0.43 -2.07,-0.661 -3.157,-0.679c-2.931,-0 -5.334,1.952 -6.903,5.768c-2.102,5.111 -0.788,8.901 3.57,10.694c0.789,0.326 1.635,0.491 2.49,0.487c2.912,-0.451 5.783,-1.136 8.585,-2.05l3.536,1.456c-2.693,7.348 -4.215,15.073 -4.509,22.893l-10.985,0.002c-7.899,-4.181 -11.167,-10.511 -17.906,-10.511c-7.391,-0 -11.558,4.714 -11.558,13.383c-0,8.669 4.167,13.383 11.558,13.383c6.72,0 9.989,-6.294 17.838,-10.476l11.05,-0.002c0.281,7.866 1.804,15.638 4.511,23.028l-3.535,1.455c-2.802,-0.914 -5.673,-1.599 -8.585,-2.05c-0.855,-0.005 -1.701,0.161 -2.49,0.487c-4.358,1.793 -5.672,5.583 -3.57,10.694c1.569,3.815 3.972,5.768 6.903,5.768c1.087,-0.018 2.159,-0.249 3.157,-0.68c3.465,-1.425 4.201,-5.05 6.747,-8.859l3.595,-1.479c3.325,7.254 7.78,13.933 13.199,19.79l-7.743,7.747c-8.542,2.629 -15.331,0.464 -20.096,5.229c-5.227,5.226 -4.84,11.506 1.29,17.636c2.485,2.886 6.019,4.659 9.818,4.927c2.992,-0.1 5.814,-1.412 7.818,-3.636c4.752,-4.751 2.612,-11.514 5.205,-20.02l7.793,-7.795c5.829,5.407 12.477,9.859 19.697,13.189l-1.455,3.536c-3.809,2.545 -7.433,3.281 -8.858,6.745c-1.792,4.358 -0.023,7.959 5.089,10.061c1.386,0.608 2.877,0.942 4.391,0.981c2.871,0.028 5.426,-1.817 6.303,-4.551c1.431,-3.479 -0.652,-6.562 -1.562,-11.082l1.424,-3.462c7.42,2.741 15.229,4.285 23.134,4.575l0.003,10.897c-4.181,7.898 -10.512,11.167 -10.512,17.906c0,7.391 4.714,11.558 13.383,11.558c8.669,0 13.383,-4.167 13.383,-11.558c0,-6.72 -6.294,-9.988 -10.475,-17.837l-0.003,-10.967c7.815,-0.288 15.537,-1.801 22.883,-4.485l1.389,3.375c-0.911,4.518 -2.993,7.601 -1.562,11.08c0.876,2.734 3.431,4.579 6.303,4.551c1.514,-0.039 3.005,-0.373 4.391,-0.981c5.111,-2.102 6.881,-5.703 5.088,-10.061c-1.425,-3.464 -5.049,-4.2 -8.859,-6.746l-1.413,-3.436c7.313,-3.343 14.044,-7.836 19.938,-13.307l7.744,7.741c2.627,8.54 0.463,15.328 5.228,20.092c2.004,2.225 4.826,3.537 7.818,3.637c3.799,-0.268 7.333,-2.041 9.818,-4.927c6.13,-6.13 6.517,-12.41 1.29,-17.636c-4.751,-4.752 -11.515,-2.612 -20.023,-5.207l-7.792,-7.789c5.388,-5.827 9.823,-12.469 13.14,-19.68l3.375,1.389c2.546,3.809 3.281,7.434 6.746,8.859c0.998,0.431 2.071,0.662 3.157,0.68c2.931,0 5.335,-1.953 6.904,-5.768c2.101,-5.111 0.788,-8.901 -3.571,-10.694c-0.789,-0.326 -1.635,-0.492 -2.489,-0.487c-2.913,0.45 -5.784,1.136 -8.585,2.049l-3.312,-1.362c2.734,-7.427 4.27,-15.241 4.55,-23.15l10.978,-0.002c7.896,4.181 11.165,10.51 17.903,10.51c7.391,0 11.558,-4.714 11.558,-13.383c0,-8.669 -4.167,-13.383 -11.558,-13.383Zm-25.214,-19.877c0.425,-1.064 1.064,-2.03 1.877,-2.838c0.302,-0.141 0.627,-0.224 0.96,-0.245c0.273,-0 0.937,0.678 1.557,2.187c1.048,2.546 0.494,2.774 -0.423,3.151c-0.092,0.039 -0.192,0.057 -0.291,0.053c-1.038,-0.133 -2.058,-0.384 -3.039,-0.749c-0.397,-0.124 -0.82,-0.256 -1.268,-0.389c0.221,-0.405 0.428,-0.796 0.627,-1.17Zm-12.56,-38.354c0.367,-3.952 0.603,-5.911 1.953,-7.261c0.939,-1.116 2.281,-1.814 3.733,-1.944c2.244,0.334 4.285,1.486 5.731,3.235c1.659,1.411 2.795,3.339 3.225,5.474c0.033,0.475 0.134,1.92 -1.935,3.989c-1.35,1.35 -3.309,1.586 -7.261,1.953c-1.848,0.171 -3.946,0.366 -6.239,0.793c0.427,-2.293 0.622,-4.391 0.793,-6.239Zm-35.209,-11.131c0.4,-0.97 0.611,-0.97 0.959,-0.97c0.759,0.042 1.503,0.228 2.193,0.547c2.546,1.047 2.318,1.601 1.942,2.517c-0.808,0.814 -1.774,1.453 -2.838,1.878c-0.374,0.198 -0.765,0.406 -1.17,0.627c-0.131,-0.442 -0.263,-0.864 -0.389,-1.268c-0.458,-1.051 -0.694,-2.185 -0.697,-3.331Zm-38.563,-21.197c0,-2.019 0,-5.779 7.604,-5.779c7.604,0 7.604,3.76 7.604,5.779c0,1.909 -1.218,3.462 -3.754,6.515c-1.185,1.428 -2.531,3.049 -3.85,4.973c-1.319,-1.924 -2.664,-3.545 -3.85,-4.973c-2.535,-3.053 -3.754,-4.606 -3.754,-6.515Zm-28.704,23.292c-0.377,-0.917 -0.605,-1.471 1.942,-2.518c0.69,-0.32 1.434,-0.505 2.193,-0.547c0.349,0 0.559,0 0.958,0.97c-0.002,1.146 -0.239,2.28 -0.696,3.331c-0.126,0.404 -0.258,0.826 -0.39,1.268c-0.404,-0.221 -0.796,-0.429 -1.17,-0.627c-1.064,-0.425 -2.029,-1.064 -2.837,-1.877Zm-42.567,12.529c-1.428,-1.428 -4.086,-4.086 1.291,-9.463c1.445,-1.749 3.487,-2.901 5.732,-3.235c1.451,0.13 2.793,0.829 3.731,1.944c1.35,1.35 1.586,3.309 1.953,7.261c0.171,1.849 0.366,3.946 0.794,6.239c-2.294,-0.427 -4.391,-0.622 -6.24,-0.793c-3.952,-0.367 -5.911,-0.603 -7.261,-1.953Zm-0.75,36.42c-0.981,0.365 -2,0.616 -3.038,0.749c-0.1,0.004 -0.2,-0.014 -0.292,-0.053c-0.614,-0.253 -0.896,-0.504 -0.929,-0.604c-0.107,-0.881 0.071,-1.773 0.506,-2.547c0.62,-1.509 1.285,-2.187 1.558,-2.187c0.332,0.021 0.657,0.104 0.959,0.246c0.813,0.807 1.452,1.773 1.877,2.837c0.199,0.374 0.406,0.765 0.628,1.17c-0.449,0.133 -0.871,0.265 -1.269,0.389Zm-17.802,35.552c-3.053,2.535 -4.606,3.753 -6.515,3.753c-2.02,0 -5.779,0 -5.779,-7.604c0,-7.604 3.759,-7.604 5.779,-7.604c1.909,0 3.462,1.218 6.515,3.754c1.428,1.186 3.049,2.531 4.973,3.85c-1.924,1.319 -3.545,2.665 -4.973,3.851Zm18.444,29.574c-0.426,1.064 -1.065,2.03 -1.878,2.838c-0.301,0.141 -0.626,0.224 -0.959,0.245c-0.273,0 -0.938,-0.678 -1.558,-2.187c-0.435,-0.774 -0.613,-1.666 -0.506,-2.547c0.033,-0.1 0.315,-0.352 0.929,-0.604c0.092,-0.04 0.192,-0.058 0.293,-0.053c1.038,0.133 2.057,0.385 3.038,0.749c0.397,0.124 0.82,0.256 1.268,0.389c-0.221,0.405 -0.429,0.796 -0.627,1.17Zm12.815,38.189c-0.367,3.952 -0.603,5.911 -1.953,7.261c-0.938,1.116 -2.28,1.815 -3.732,1.944c-2.244,-0.334 -4.286,-1.486 -5.731,-3.235c-5.377,-5.376 -2.719,-8.035 -1.291,-9.463c1.35,-1.349 3.309,-1.586 7.261,-1.952c1.849,-0.172 3.946,-0.366 6.24,-0.794c-0.428,2.293 -0.623,4.39 -0.794,6.239Zm34.953,11.296c-0.399,0.97 -0.61,0.97 -0.958,0.97c-0.76,-0.042 -1.504,-0.227 -2.193,-0.547c-2.547,-1.047 -2.319,-1.601 -1.942,-2.517c0.808,-0.813 1.773,-1.452 2.837,-1.878c0.374,-0.198 0.766,-0.406 1.17,-0.626c0.132,0.441 0.264,0.864 0.39,1.267c0.457,1.051 0.694,2.185 0.696,3.331Zm38.819,21.032c-0,2.02 -0,5.779 -7.604,5.779c-7.604,0 -7.604,-3.759 -7.604,-5.779c0,-1.909 1.219,-3.462 3.754,-6.515c1.185,-1.428 2.531,-3.049 3.85,-4.973c1.319,1.924 2.665,3.545 3.85,4.973c2.536,3.053 3.754,4.606 3.754,6.515l-0,-0Zm28.448,-23.127c0.377,0.917 0.605,1.471 -1.941,2.518c-0.69,0.32 -1.434,0.505 -2.193,0.547c-0.348,-0 -0.559,-0 -0.958,-0.97c0.002,-1.146 0.238,-2.28 0.696,-3.331c0.126,-0.403 0.258,-0.826 0.389,-1.267c0.405,0.22 0.796,0.428 1.17,0.626c1.064,0.426 2.029,1.065 2.837,1.877Zm-36.049,-11.382c-38.301,-0 -69.35,-31.049 -69.35,-69.35c0,-38.3 31.049,-69.349 69.35,-69.349c38.301,-0 69.35,31.049 69.35,69.349c-0.044,38.283 -31.068,69.306 -69.35,69.35l-0,-0Zm78.872,-1.312c2.07,2.07 1.968,3.514 1.935,3.989c-0.429,2.135 -1.566,4.064 -3.225,5.474c-1.446,1.749 -3.487,2.901 -5.732,3.235c-1.452,-0.129 -2.793,-0.828 -3.732,-1.944c-1.349,-1.349 -1.586,-3.309 -1.953,-7.261c-0.171,-1.848 -0.366,-3.946 -0.793,-6.239c2.293,0.428 4.391,0.622 6.239,0.794c3.952,0.366 5.911,0.603 7.261,1.952Zm3.533,-37.004c0.099,-0.004 0.2,0.014 0.291,0.053c0.918,0.377 1.471,0.605 0.424,3.151c-0.621,1.509 -1.285,2.187 -1.559,2.187c-0.332,-0.021 -0.657,-0.104 -0.959,-0.245c-0.813,-0.808 -1.452,-1.774 -1.877,-2.838c-0.199,-0.374 -0.406,-0.765 -0.627,-1.17c0.448,-0.133 0.871,-0.265 1.268,-0.389c0.981,-0.365 2.001,-0.616 3.039,-0.749Zm21.534,-23.513c-1.909,0 -3.461,-1.218 -6.515,-3.753c-1.428,-1.186 -3.049,-2.532 -4.973,-3.851c1.924,-1.319 3.545,-2.664 4.973,-3.85c3.054,-2.535 4.606,-3.754 6.515,-3.754c2.02,0 5.779,0 5.779,7.604c0,7.604 -3.759,7.604 -5.779,7.604Z"/><path d="M149.719,136.273c-1.736,2.083 -4.551,2.083 -6.287,-0.001c-1.736,-2.083 -1.736,-5.461 0,-7.545c1.736,-2.083 4.552,-2.082 6.288,0.001c0.833,1 1.302,2.357 1.302,3.772c0.003,1.416 -0.466,2.774 -1.303,3.773Z" style="fill:#00c7d9;"/><path d="M146.575,120.95c-5.315,-0 -9.625,5.171 -9.625,11.55c0,6.379 4.31,11.55 9.625,11.55c5.316,0 9.625,-5.171 9.625,-11.55c0,-3.063 -1.014,-6.001 -2.819,-8.167c-1.803,-2.169 -4.252,-3.387 -6.806,-3.383l0,-0Zm3.144,15.323c-1.736,2.083 -4.551,2.083 -6.287,-0.001c-1.736,-2.083 -1.736,-5.461 0,-7.545c1.736,-2.083 4.552,-2.082 6.288,0.001c0.833,1 1.302,2.357 1.302,3.772c0.003,1.416 -0.466,2.774 -1.303,3.773Z"/><path d="M119.625,105.473c-2.084,2.083 -5.462,2.083 -7.545,-0c-2.083,-2.084 -2.083,-5.462 0,-7.546c2.084,-2.083 5.462,-2.082 7.545,0.001c1,1.001 1.563,2.357 1.563,3.772c0.003,1.416 -0.56,2.774 -1.563,3.773Z" style="fill:#00c7d9;"/><path d="M115.972,90.15c-5.425,-0 -9.822,5.131 -9.822,11.459c0,6.329 4.398,11.459 9.822,11.459c5.425,0 9.822,-5.131 9.822,-11.459c0,-3.039 -1.035,-5.954 -2.877,-8.103c-1.84,-2.152 -4.34,-3.36 -6.945,-3.356Zm3.208,15.202c-1.772,2.067 -4.644,2.067 -6.416,-0c-1.771,-2.068 -1.771,-5.419 0.001,-7.486c1.771,-2.067 4.644,-2.066 6.416,0.001c0.85,0.992 1.328,2.338 1.328,3.742c0.003,1.405 -0.475,2.752 -1.329,3.743Z"/><path d="M150.117,183.705c-2.084,2.083 -5.461,2.082 -7.545,-0.001c-2.083,-2.084 -2.083,-5.461 0.001,-7.545c1.041,-1.041 2.406,-1.561 3.771,-1.562c1.366,0 2.732,0.521 3.774,1.563c1,1 1.562,2.357 1.562,3.772c0.003,1.416 -0.56,2.774 -1.563,3.773Z" style="fill:#00c7d9;"/><path d="M146.464,168.382c-5.425,-0 -9.822,5.171 -9.822,11.55c0,6.379 4.398,11.55 9.822,11.55c5.425,0 9.822,-5.171 9.822,-11.55c0,-3.063 -1.035,-6.001 -2.877,-8.167c-1.84,-2.169 -4.34,-3.387 -6.945,-3.383Zm3.208,15.323c-1.772,2.083 -4.644,2.082 -6.416,-0.001c-1.771,-2.084 -1.771,-5.461 0.001,-7.545c0.885,-1.041 2.046,-1.561 3.207,-1.562c1.161,0 2.323,0.521 3.209,1.563c0.85,1 1.328,2.357 1.328,3.772c0.003,1.416 -0.475,2.774 -1.329,3.773l0,-0Z"/><path d="M180.519,105.473c-1.736,2.083 -4.551,2.083 -6.288,-0c-1.736,-2.084 -1.736,-5.462 0.001,-7.546c1.736,-2.083 4.551,-2.083 6.287,0c1.736,2.057 1.755,5.414 0.041,7.497c-0.014,0.017 -0.027,0.033 -0.041,0.049Z" style="fill:#00c7d9;"/><path d="M177.375,90.15c-5.315,-0 -9.625,5.171 -9.625,11.55c0,6.379 4.31,11.55 9.625,11.55c5.316,0 9.625,-5.171 9.625,-11.55c0,-3.063 -1.014,-6.001 -2.819,-8.167c-1.803,-2.169 -4.252,-3.387 -6.806,-3.383Zm3.144,15.323c-1.736,2.083 -4.551,2.083 -6.288,-0c-1.736,-2.084 -1.736,-5.462 0.001,-7.546c1.736,-2.083 4.551,-2.083 6.287,0c1.736,2.057 1.755,5.414 0.041,7.497c-0.014,0.017 -0.027,0.033 -0.041,0.049Z"/><path d="M146.575,90.15c3.19,0 5.775,-3.447 5.775,-7.7c0,-4.252 -2.585,-7.7 -5.775,-7.7c-3.189,-0 -5.775,3.447 -5.775,7.7c0,2.042 0.608,4 1.691,5.445c1.082,1.446 2.552,2.258 4.084,2.255l-0,0Zm-0.788,-8.75c0.435,-0.58 1.14,-0.58 1.575,-0c0.436,0.58 0.436,1.52 0.001,2.1c-0.435,0.58 -1.14,0.581 -1.575,0c-0.435,-0.58 -0.435,-1.519 -0.001,-2.1Z"/><path d="M115.159,153.665c-3.189,-0 -5.775,3.447 -5.775,7.7c0,4.252 2.586,7.7 5.775,7.7c3.19,0 5.775,-3.447 5.775,-7.7c0,-2.042 -0.608,-4.001 -1.691,-5.445c-1.082,-1.446 -2.552,-2.258 -4.084,-2.255Zm0.787,8.75c-0.434,0.58 -1.139,0.58 -1.574,0c-0.435,-0.58 -0.435,-1.52 -0.001,-2.1c0.431,-0.587 1.136,-0.597 1.576,-0.023c0.439,0.574 0.447,1.514 0.017,2.1c-0.006,0.008 -0.012,0.016 -0.018,0.023Z"/><path d="M96.525,124.8c-3.189,-0 -5.775,3.448 -5.775,7.7c0,4.253 2.586,7.7 5.775,7.7c3.19,0 5.775,-3.447 5.775,-7.7c0,-2.042 -0.608,-4 -1.691,-5.445c-1.082,-1.446 -2.552,-2.258 -4.084,-2.255Zm0.787,8.75c-0.435,0.58 -1.139,0.58 -1.574,0.001c-0.435,-0.581 -0.435,-1.52 -0,-2.101c0.429,-0.587 1.135,-0.597 1.574,-0.024c0.441,0.573 0.449,1.514 0.019,2.101c-0.007,0.008 -0.012,0.016 -0.019,0.024l0,-0.001Z"/></g></svg>