<?xml version="1.0" encoding="UTF-8" standalone="no"?><!DOCTYPE svg PUBLIC "-//W3C//DTD SVG 1.1//EN" "http://www.w3.org/Graphics/SVG/1.1/DTD/svg11.dtd"><svg width="100%" height="100%" viewBox="0 0 267 263" version="1.1" xmlns="http://www.w3.org/2000/svg" xmlns:xlink="http://www.w3.org/1999/xlink" xml:space="preserve" xmlns:serif="http://www.serif.com/" style="fill-rule:evenodd;clip-rule:evenodd;stroke-linecap:round;stroke-linejoin:round;stroke-miterlimit:1.5;"><rect id="drug" x="0" y="0" width="267" height="263" style="fill:none;"/><g id="drug1" serif:id="drug"><g opacity="0.77"><ellipse cx="137.5" cy="131.5" rx="126.5" ry="127.5" style="fill:#fff;"/><ellipse cx="137.5" cy="131.5" rx="126.5" ry="127.5" style="fill:#788cb0;fill-opacity:0.14;"/><ellipse cx="137.5" cy="131.5" rx="126.5" ry="127.5" style="fill:none;stroke:#0021ff;stroke-opacity:0.27;stroke-width:2.71px;"/></g><g><g><path d="M129.662,162.355c-23.093,12.448 -58.295,24.766 -65.62,23.906c-1.476,-0.173 1.759,-3.564 1.227,-4.428" style="fill:none;stroke:#788cb0;stroke-width:45.83px;"/><path d="M137.951,147.885l-0.112,-0" style="fill:none;stroke:#788cb0;stroke-width:29.17px;"/><path d="M96.795,121.174c1.061,-0 2.235,-0.313 3.186,-0.313" style="fill:none;stroke:#788cb0;stroke-width:12.5px;"/><path d="M117.594,118.21c-0.371,-5.226 -9.222,3.89 -13.476,4.987c-20.388,5.259 -31.837,22.033 -38.699,36.28c-4.087,8.484 -8.986,23.752 -1.333,30.75c2.898,2.65 14.046,-8.325 15.536,-9.71c11.776,-10.945 23.298,-22.209 33.939,-34.021c3.844,-4.267 10.596,-3.597 13.563,-8.349c0.302,-0.482 -0.378,-10.827 -1.832,-10.238" style="fill:none;stroke:#788cb0;stroke-width:39.58px;"/><path d="M75.979,133.172c13.939,9.649 -10.579,4.136 -10.85,4.398c-1.534,1.483 -5.059,3.086 -5.888,4.705c-1.826,3.563 -6.696,1.179 -7.129,4.826c-0.168,1.417 -6.003,9.505 -6.672,10.896c-1.47,3.055 4.543,6.392 4.644,9.19c0.046,1.284 -1.616,2.714 -1.49,3.863c0.335,3.069 0.984,5.655 0.964,8.826c-0.005,0.726 2.787,3.174 2.554,3.486c-0.689,0.923 -1.806,-0.9 -2.348,-1.576c-1.274,-1.589 -2.007,-3.473 -2.753,-5.315c-1.709,-4.215 -2.265,-4.426 2.212,-9.131c0.997,-1.048 2.018,-2.18 3.085,-3.212c1.657,-1.603 4.317,-5.071 6.933,-6.131" style="fill:none;stroke:#788cb0;stroke-width:37.5px;"/><path d="M129.979,140.093c-0.203,0.082 -0.316,0.192 -0.524,0.276" style="fill:none;stroke:#788cb0;stroke-width:18.75px;"/><path d="M139.566,170.146c0.218,0.001 -0.35,0.134 -3.081,0.134" style="fill:none;stroke:#788cb0;stroke-width:25px;"/></g><path d="M89.511,203.701c-16.469,6.675 133.552,-53.799 135.809,-55.047c42.401,-23.449 24.599,-80.11 -14.104,-83.885c-7.017,-0.685 -14.722,0.37 -22.88,3.676" style="fill:none;stroke:#000;stroke-width:3.96px;"/><path d="M121.737,97.646c4.62,2.077 8.818,6.851 12.006,10.884c10.971,13.882 16.181,29.715 18.341,47.022c0.835,6.684 0.51,12.523 -1.12,18.738c-0.204,0.776 -0.711,4.536 -1.268,4.762" style="fill:none;stroke:#000;stroke-width:3.96px;"/><path d="M188.57,68.307c16.469,-6.675 -135.287,54.502 -137.544,55.751c-48.853,27.016 -17.786,98.125 33.087,81.63c1.287,-0.417 2.586,-0.89 3.897,-1.422" style="fill:none;stroke:#000;stroke-width:3.96px;"/></g></g></svg>