<?xml version="1.0" encoding="UTF-8" standalone="no"?><!DOCTYPE svg PUBLIC "-//W3C//DTD SVG 1.1//EN" "http://www.w3.org/Graphics/SVG/1.1/DTD/svg11.dtd"><svg width="100%" height="100%" viewBox="0 0 276 272" version="1.1" xmlns="http://www.w3.org/2000/svg" xmlns:xlink="http://www.w3.org/1999/xlink" xml:space="preserve" xmlns:serif="http://www.serif.com/" style="fill-rule:evenodd;clip-rule:evenodd;stroke-linecap:round;stroke-linejoin:round;stroke-miterlimit:1.5;"><rect id="heart" x="0" y="0" width="276" height="272" style="fill:none;"/><g opacity="0.77"><ellipse cx="131.5" cy="134.5" rx="126.5" ry="127.5" style="fill:#fff;"/><ellipse cx="131.5" cy="134.5" rx="126.5" ry="127.5" style="fill:#788cb0;fill-opacity:0.14;"/><ellipse cx="131.5" cy="134.5" rx="126.5" ry="127.5" style="fill:none;stroke:#0021ff;stroke-opacity:0.27;stroke-width:2.71px;"/></g><g><path d="M130.583,99.042c15.213,-38.403 45.444,-50.659 70.067,-44.399c14.556,3.701 27.152,13.874 33.527,28.942c5.463,12.912 6.356,29.419 -0,48.529c-10.537,31.677 -40.997,70.506 -103.594,111.969c-86.633,-57.384 -107.887,-109.724 -107.61,-145.041c0.082,-10.487 4.957,-19.354 10.413,-26.503c22.796,-29.867 75.406,-28.508 97.197,26.503Z" style="fill:#c70000;"/><path d="M130.583,99.042c7.773,-19.622 19.467,-32.418 32.33,-39.405c61.089,-33.185 148.552,64.634 -32.33,184.446c-218.969,-145.041 -44.687,-257.851 0,-145.041Z" style="fill:none;fill-rule:nonzero;stroke:#172c51;stroke-width:4.17px;stroke-linecap:butt;stroke-linejoin:miter;stroke-miterlimit:8;"/><g><g><path d="M116.506,212.633l13.251,-44.573l-20.479,0l10.143,-53.92l30.309,-0l-12.745,39.464l20.479,0l-40.958,59.029Z" style="fill:#c4bbbb;fill-rule:nonzero;stroke:#000;stroke-width:2.41px;stroke-linecap:butt;stroke-miterlimit:2;"/></g></g></g></svg>