<?xml version="1.0" encoding="UTF-8" standalone="no"?><!DOCTYPE svg PUBLIC "-//W3C//DTD SVG 1.1//EN" "http://www.w3.org/Graphics/SVG/1.1/DTD/svg11.dtd"><svg width="100%" height="100%" viewBox="0 0 269 270" version="1.1" xmlns="http://www.w3.org/2000/svg" xmlns:xlink="http://www.w3.org/1999/xlink" xml:space="preserve" xmlns:serif="http://www.serif.com/" style="fill-rule:evenodd;clip-rule:evenodd;stroke-linecap:round;stroke-linejoin:round;stroke-miterlimit:1.5;"><rect id="liver" x="0" y="0" width="269" height="270" style="fill:none;"/><g opacity="0.77"><ellipse cx="131.5" cy="134.5" rx="126.5" ry="127.5" style="fill:#fff;"/><ellipse cx="131.5" cy="134.5" rx="126.5" ry="127.5" style="fill:#788cb0;fill-opacity:0.14;"/><ellipse cx="131.5" cy="134.5" rx="126.5" ry="127.5" style="fill:none;stroke:#0021ff;stroke-opacity:0.27;stroke-width:2.71px;"/></g><path d="M50.81,90.381c19.73,0 58.476,42.196 71.176,56.381" style="fill:#b441a5;stroke:#c70000;stroke-width:25px;"/><path d="M46.73,88.655c0,-0.291 16.528,-2.192 16.706,-0.24c0.134,1.465 2.278,-2.486 3.719,-2.627c2.115,-0.206 7.215,-1.057 9.33,-1.207c1.109,-0.079 2.549,0.417 3.673,0.663c0.66,0.145 2.742,0.056 3.23,0.544c0.369,0.369 7.048,1.325 7.438,1.325c2.368,0 8.671,1.475 11.037,1.542c1.422,0.04 5.579,-1.593 7.001,-1.542c1.157,0.042 -10.51,-4.619 -9.349,-4.536c3.502,0.249 9.031,-0.492 11.883,2.004c0.35,0.306 1.665,0.866 1.814,1.313c0.225,0.675 -0.396,1.204 -0.396,1.801c-0,0.392 0.712,-0.341 1.021,-0.582c0.751,-0.585 1.149,-1.275 1.788,-1.869c0.075,-0.069 0.541,-0.324 0.577,-0.288c0.211,0.212 -0.217,0.558 -0.338,0.832c-0.42,0.953 -0.825,1.913 -1.243,2.867c-1.331,3.042 -2.951,5.947 -3.891,9.138c-1.817,6.166 2.386,12.947 3.992,18.638c1.25,4.428 0.864,9.709 4.118,13.286c0.873,0.961 1.826,1.837 2.696,2.791c0.193,0.211 0.353,0.417 0.474,0.675c0.081,0.171 0.125,0.695 0.209,0.526c0.1,-0.198 -0.304,-1.129 -0.364,-1.293c-0.655,-1.799 -1.443,-3.503 -2.314,-5.212c-2.747,-5.39 -6.607,-9.922 -10.677,-14.346c-6.827,-7.42 -15.757,-13.208 -25.476,-16.156c-6.517,-1.978 -13.424,-1.931 -19.952,-3.792c-2.997,-0.855 -6.018,-2.334 -8.311,-4.495c-0.906,-0.853 1.477,0.506 0.26,0.24c-1.993,-0.437 -5.498,0.999 -7.305,1.639c-1.402,0.496 -5.029,-0.83 -6.275,-0c-6.762,4.502 -9.137,12.152 -8.712,19.789c0.201,3.627 -0.985,7.721 0.356,11.187c1.804,4.66 5.197,8.391 8.356,12.183c3.146,3.776 4.087,13.235 8.134,16.12c3.425,2.443 9.449,25.071 13.497,25.849c2.382,0.458 4.602,-12.38 7.042,-13c4.653,-1.182 -1.785,-18.215 -3.323,-21.598c-2.966,-6.526 -0.305,-14.362 -5.503,-19.27c-2.309,-2.181 -4.955,-3.952 -7.414,-5.948c-3.691,-2.998 -6.915,-6.258 -10.024,-9.813c-0.024,-0.027 -2.121,-2.273 -1.901,-2.493c0.275,-0.276 0.733,0.265 1.097,0.404c1.104,0.423 2.219,0.814 3.32,1.244c5.764,2.256 11.118,5.641 15.594,9.913c3.102,2.961 5.324,6.649 8.154,9.834c3.246,3.653 7.459,6.271 10.687,9.939c2.049,2.327 2.478,6.358 4.975,8.161c1.344,0.97 3.233,1.654 4.686,2.551c2.633,1.625 -3.022,10.325 0,10.828c6.478,1.08 49.272,-4.239 16.543,-1.08c-16.976,1.639 16.454,-1.403 1.917,1.08" style="fill:none;stroke:#c70000;stroke-width:25px;"/><path d="M79.213,185.459c-0,-3.241 3.509,-5.523 5.702,-7.351c1.894,-1.578 3.535,-3.414 5.594,-4.889c3.97,-2.844 8.632,-4.891 12.331,-8.075c1.537,-1.324 4.007,-2.805 5.847,-3.672c0.379,-0.179 2.168,-0.949 2.168,-1.339" style="fill:none;stroke:#c70000;stroke-width:25px;"/><path d="M68.911,185.95c-0.489,-0.122 -0.44,0.564 -0.549,0.939c-0.273,0.932 -0.65,1.817 -0.916,2.754c-0.381,1.344 -0.139,2.523 -0.048,3.886c0.183,2.727 0.112,5.685 -0.083,8.41c-0.19,2.668 4.419,3.499 4.725,6.129c0.09,0.772 -2.638,-0.641 -3.129,0c-1,1.305 4.7,-1.735 4.926,-1.774c2.887,-0.496 -3.007,3.496 -1.451,1.774c2.559,-2.831 4.221,-6.217 6.438,-9.321c1.221,-1.71 2.651,-3.359 3.603,-5.263c1.132,-2.265 1.82,-4.42 3.385,-6.508c1.584,-2.112 2.846,-4.505 4.411,-6.554c0.18,-0.236 1.491,-1.559 1.278,-1.772c-0.352,-0.352 -0.984,-0.173 -1.482,-0.19c-1.307,-0.044 -2.615,0 -3.923,0c-4.467,0 -8.016,0.552 -12.259,1.742c-3.031,0.851 -6.14,3.387 -9.384,3.387" style="fill:none;stroke:#c70000;stroke-width:25px;"/><g><path d="M134.8,87.893c0.403,1.237 0.674,2.601 0.781,3.9c0.023,0.287 -0.049,0.576 -0.028,0.863c0.017,0.251 0.201,0.963 0.065,0.751c-1.112,-1.732 -1.332,-4.14 -1.761,-6.113c-0.065,-0.303 -0.054,-1.345 -0.266,-1.561c-0.461,-0.467 -1.251,-0.2 -1.57,-0.523c-0.496,-0.503 -0.197,-0.968 -0.532,-1.308c-0.255,-0.258 -0.612,-0.899 -0.612,-0.899c0,0 -0.266,0.686 -0.432,1.013c-0.446,0.876 -0.852,1.842 -1.241,2.743c-0.825,1.907 -0.7,3.586 -0.714,5.591c-0.008,1.265 -0.878,2.4 -0.935,3.709c-0.059,1.33 -1.092,1.919 -0.907,3.195c0.213,1.47 1.347,3.481 1.249,4.973c-0.069,1.045 0.517,2.121 0.582,3.155c0.184,2.925 1.025,5.473 2.417,8.16c1.125,2.169 2.877,3.99 3.984,6.253c0.867,1.772 1.3,3.848 2.207,5.565c1.248,2.362 2.934,4.198 3.559,6.909c0.506,2.198 1.476,4.39 1.809,6.593c0.284,1.88 -0.014,3.732 0.121,5.615c0.034,0.463 0.297,1.529 0.107,1.984c-0.257,0.611 -0.566,1.003 -0.57,1.53c-0.002,0.402 -0.027,1.556 0.331,1.738c0.122,0.062 -0.478,-1.021 -0.343,-1.053c0.949,-0.222 1.846,-0.508 2.773,-0.81c3.916,-1.276 8.036,-2.326 11.77,-4.003c3.667,-1.646 7.489,-2.98 11.142,-4.617c4.806,-2.153 9.547,-4.757 14.303,-7.021c5.365,-2.554 11.583,-5.134 15.182,-10.075c0.602,-0.825 1.66,-1.383 2.243,-2.244c0.943,-1.395 1.329,-3.111 2.251,-4.544c1.118,-1.738 2.732,-3.239 3.786,-5.03c2.876,-4.887 6.199,-9.516 9.616,-13.989c1.065,-1.395 2.251,-2.572 3.452,-3.784c0.82,-0.826 0.999,-1.993 1.837,-2.759c0.607,-0.554 2.337,-2.141 2.411,-2.635c0.064,-0.43 -2.311,-0.872 -2.394,-0.79c-0.184,0.182 0.871,1.367 0.996,1.557c0.095,0.145 -0.27,-0.292 -0.241,-0.463c0.079,-0.469 1.823,-0.854 2.129,-0.954c1.65,-0.538 0.293,-1.622 1.926,-1.756c2.025,-0.166 -1.905,-0.597 -1.926,-0.59c-0.543,0.177 2.494,0.593 1.926,0.671c-0.357,0.048 -1.071,0.132 -1.071,0.132c-0,0 0.375,-0.348 0.6,-0.465c0.428,-0.224 0.897,-0.415 1.305,-0.654c0.783,-0.459 -1.266,0.403 -0.62,-0.233c0.007,-0.008 1.401,0.203 2.23,-0.061c0.334,-0.106 0.193,-0.528 -0.128,-0.392c-0.874,0.37 -1.004,0.761 -1.906,1.055c-2.718,0.885 -5.559,1.722 -8.401,2.071c-1.469,0.181 -4.295,-1.349 -5.746,-1.06c-1.363,0.272 -1.227,2.342 -2.617,2.55c-1.456,0.219 -2.83,0.765 -4.285,0.961c-4.51,0.606 -9.109,0.751 -13.625,1.54c-0.864,0.151 -1.866,-0.184 -2.764,-0.087c-4.448,0.481 -9.102,0.947 -13.584,1.111c-5.931,0.218 -12.46,1.483 -18.303,-0.369c-3.041,-0.963 -6.047,-2.076 -9.099,-3.031c-2.692,-0.842 -5.257,-1.464 -7.034,-3.72c-0.075,-0.096 -1.072,0.021 -1.17,0.02c-1.024,-0.007 -1.525,0.029 -1.618,1.182c-0.151,1.899 0.656,4.011 1.225,5.783c1.081,3.368 2.562,6.918 3.245,10.404c0.705,3.601 -0.077,7.253 0.568,10.824c0.943,5.223 3.927,9.493 6.446,14.027c1.398,2.517 2.833,4.879 4.63,7.078c0.214,0.262 1.646,2.85 2.196,2.85c2.648,-0.002 5.608,-2.078 7.889,-3.219c7.52,-3.762 14.666,-8.214 22.114,-12.113c6.245,-3.268 12.759,-6.169 18.411,-10.45c1.594,-1.207 3.399,-2.57 4.735,-4.077c0.647,-0.73 1.152,-2.271 1.938,-2.752c1.195,-0.733 3.746,-2.431 3.879,-3.904c0.092,-1.019 -0.921,-1.314 -1.666,-1.692c-2.15,-1.094 -4.184,-2.358 -6.482,-3.131c-6.96,-2.338 -13.68,1.944 -17.457,7.684c-1.319,2.005 -2.278,3.916 -2.697,6.332c-0.141,0.813 -0.469,1.874 -0.044,2.663c0.965,1.787 3.458,-0.302 4.387,-0.818c0.793,-0.442 1.604,-0.85 2.405,-1.278c5.252,-2.808 10.801,-6.344 14.876,-10.745c1.378,-1.488 2.799,-3.028 2.339,-5.236c-0.05,-0.241 -0.372,-1.783 -0.756,-1.74c-3.536,0.392 -7.643,2.737 -10.806,4.059c-9.382,3.922 -18.604,8.475 -27.451,13.485c-1.395,0.79 -2.772,1.613 -4.148,2.438c-1.264,0.758 -6.078,2.801 -5.233,5.393c0.468,1.435 2.116,-0.281 2.847,-0.732c2.904,-1.791 2.829,-1.805 5.751,-3.547c3.081,-1.837 3.041,-1.811 6.15,-3.538c0.746,-0.415 3.507,-1.366 2.992,-2.932c-0.283,-0.86 -3.203,0.975 -3.394,1.112c-2.36,1.688 -4.256,3.197 -5.488,5.928c-0.578,1.281 -1.415,4.765 1.493,3.519c0.646,-0.277 1.219,-0.64 1.809,-1.018c1.077,-0.687 1.896,-1.23 2.938,-1.981c1.289,-0.929 4.329,-2.503 4.58,-4.092c0.016,-0.102 -0.211,0.033 -0.292,0.095c-0.521,0.392 -0.999,0.837 -1.513,1.238c-1.383,1.08 -2.837,1.989 -4.423,2.73c-4.532,2.117 -8.841,4.466 -13.263,6.798c-0.143,0.075 -3.037,1.957 -3.513,1.715c-0.148,-0.075 -0.159,-0.733 -0.379,-0.917c-0.675,-0.566 -1.615,-0.836 -2.154,-1.569c-1.289,-1.758 0.075,-5.96 0.181,-7.789c0.188,-3.229 -0.511,-6.589 -1.747,-9.561c-0.359,-0.863 -0.874,-2.186 -0.627,-3.12c0.049,-0.185 0.783,-1.946 0.413,-2.082c-0.418,-0.153 -0.872,0.185 -1.294,0.323c-1.718,0.56 -3.644,1.477 -5.463,1.585c-0.112,0.006 0.224,-0.029 0.335,-0.019c0.291,0.026 0.582,0.047 0.87,0.09c1.021,0.153 1.931,0.397 2.972,0.31c2.817,-0.237 5.162,-0.521 8.231,-0.658c3.015,-0.135 6.063,-0.01 9.086,-0.075c0.343,-0.007 2.572,-0.296 3.312,-0.121c0.385,0.091 0.884,0.509 1.179,0.67c0.353,0.194 0.728,0.344 1.074,0.547c0.306,0.178 0.581,0.404 0.879,0.594c1.55,0.987 1.613,1.089 3.4,0.507c0.324,-0.106 2.289,-0.746 2.947,-0.961" style="fill:#d90000;stroke:#f00000;stroke-width:16.67px;"/><path d="M137.263,157.029c-0.029,0.057 -0.759,1.365 -0.777,1.371" style="fill:#d90000;stroke:#f00000;stroke-width:8.33px;"/><path d="M223.931,89.678c-7.78,8.11 -0.13,0.042 -0,-0Z" style="fill:#d90000;stroke:#f00000;stroke-width:8.33px;"/><path d="M110.924,72.278c-19.034,-0.768 -26.454,0.504 -44.82,1.821c-3.172,0.227 -16.836,1.521 -21.066,3.071c-12.924,4.738 -15.101,8.395 -19.206,13.96c-24.277,32.912 21.196,63.14 27.258,93.547c1.724,8.65 3.375,17.825 5.508,29.14c0.569,3.018 5.667,8.397 7.506,8.409c21.171,0.143 25.013,-21.301 32.755,-34.117c5.516,-9.132 16.937,-16.545 18.622,-17.371c8.38,-4.104 12.873,-6.647 15.204,-7.728c15.281,-7.081 12.923,-5.698 16.728,-7.23c11.605,-4.673 23.963,-8.602 35.835,-14.169c12.065,-5.657 22.091,-14.813 29.572,-27.302c8.41,-14.039 8.192,-13.365 15.842,-21.723c9.318,-10.18 0.903,-15.27 -7.848,-13.387c-3.115,0.671 -9.401,0.236 -15.261,1.488c-11.012,2.352 -9.376,2.333 -13.164,3.014c-5.069,0.911 -10.458,2.395 -19.94,2.152c-3.548,-0.091 -15.694,-0.808 -22.021,-3.107c-0.467,-0.17 -10.526,-2.848 -11.506,-3.221c-3.079,-1.175 -5.993,-2.334 -8.281,-3.212c-1.954,-0.75 -4.772,-1.966 -5.525,-2.142c-8.109,-1.888 -9.129,-1.608 -16.192,-1.893Z" style="fill:none;stroke:#000;stroke-width:4.17px;"/><path d="M38.381,120.55c1.772,0.131 5.206,2.673 6.739,3.439c3.516,1.758 7.12,3.169 10.852,4.62c1.239,0.482 7.57,4.421 9.247,3.874" style="fill:#d90000;stroke:#959aa2;stroke-width:4.17px;"/><path d="M59.298,113.029c-0.198,-0.609 -5.168,6.994 -6.076,7.879c-3.512,3.423 -11.439,19.21 -12.873,19.677" style="fill:#d90000;stroke:#959aa2;stroke-width:4.17px;"/><path d="M80.372,106.356c2.993,3.034 10.664,7.757 14.343,9.81c1.124,0.627 10.683,5.504 9.958,5.135" style="fill:#d90000;stroke:#959aa2;stroke-width:4.17px;"/><path d="M99.505,100.858c-2.27,1.422 -7.785,12.804 -8.735,14.37c-1.505,2.483 -6.196,10.261 -7.292,12.417" style="fill:#d90000;stroke:#959aa2;stroke-width:4.17px;"/><path d="M129.426,74.956c-6.105,-3.104 -10.853,22.381 -10.856,25.04c-0.009,6.85 3.548,16.31 6.002,20.603c8.108,14.185 16.211,22.872 6.024,42.909" style="fill:none;stroke:#000;stroke-width:4.17px;"/></g><ellipse cx="139.5" cy="150.29" rx="34.5" ry="33.29" style="fill:#ffd700;stroke:#000;stroke-width:1.87px;"/><g transform="matrix(62.5,0,0,62.5,146.428,171.371)"></g><text x="129.064px" y="171.371px" style="font-family:'Helvetica';font-size:62.5px;">!</text></svg>