<?xml version="1.0" encoding="UTF-8" standalone="no"?><!DOCTYPE svg PUBLIC "-//W3C//DTD SVG 1.1//EN" "http://www.w3.org/Graphics/SVG/1.1/DTD/svg11.dtd"><svg width="100%" height="100%" viewBox="0 0 281 280" version="1.1" xmlns="http://www.w3.org/2000/svg" xmlns:xlink="http://www.w3.org/1999/xlink" xml:space="preserve" xmlns:serif="http://www.serif.com/" style="fill-rule:evenodd;clip-rule:evenodd;stroke-linecap:round;stroke-linejoin:round;stroke-miterlimit:1.5;"><rect id="neoplasm" x="0" y="0" width="281" height="280" style="fill:none;"/><clipPath id="_clip1"><rect id="neoplasm1" serif:id="neoplasm" x="0" y="0" width="281" height="280"/></clipPath><g clip-path="url(#_clip1)"><path d="M116.499,52.7c-1.127,0 -2.599,1.653 -3.454,2.261c-1.407,0.999 -2.927,1.991 -4.327,2.924c-0.66,0.44 -1.039,1.348 -1.607,1.884c-1.962,1.85 -3.097,4.182 -4.796,6.187c-1.271,1.499 -1.938,3.068 -2.493,4.731c-0.104,0.312 -0.535,1.013 -0.244,1.304c0.868,0.868 2.59,-0.966 3.237,-1.523c1.252,-1.077 2.947,-1.746 4.089,-3.039c1.256,-1.42 2.709,-2.936 4.122,-4.201c1.921,-1.719 5.003,-2.291 7.405,-3.012c0.271,-0.081 2.628,-0.605 2.628,-0.875c0,-0.087 -0.991,0.453 -1.029,0.469c-0.526,0.213 -1.001,0.421 -1.522,0.646c-1.062,0.458 -2.686,0.958 -3.419,1.692c-0.058,0.057 -1.455,0.747 -1.433,0.757c0.093,0.047 0.354,-0.292 0.381,-0.313c0.803,-0.657 1.696,-1.22 2.585,-1.749c2.491,-1.483 5.416,-3.648 8.375,-4.13c0.788,-0.128 1.771,-0.018 2.551,0.06c0.315,0.032 0.943,-0.204 0.943,0.113c0,0.67 -2.83,0.98 -3.224,1.067c-0.265,0.059 -0.527,0.102 -0.784,0.146c-0.049,0.009 -0.467,0.134 -0.465,0.135c0.374,0.187 0.819,-0.174 1.233,-0.225c1.177,-0.145 2.454,-0.199 3.627,-0.268c3.961,-0.232 8.537,-1.217 12.256,0.255c2.146,0.849 4.573,0.598 6.767,1.211c1.528,0.426 2.898,1.398 4.11,2.345c0.866,0.677 1.839,1.381 2.824,1.87c0.406,0.202 0.393,0.143 0.81,0.37c0.17,0.092 0.651,0.242 0.478,0.329c-0.42,0.21 -1.561,-0.401 -1.891,-0.622c-1.575,-1.059 -3.326,-1.405 -4.863,-2.381c-0.151,-0.096 -1.311,-0.408 -1.311,-0.698c-0,-0.361 0.665,0.286 0.981,0.462c0.315,0.176 0.615,0.379 0.929,0.557c1.378,0.782 2.804,1.452 4.255,2.082c4.318,1.877 6.999,6.223 10.246,9.47c0.925,0.925 2.176,1.817 2.913,2.922c0.221,0.332 0.677,0.898 1.002,1.06c0.061,0.03 0.435,0.607 0.47,0.571c0.107,-0.107 -0.521,-2.357 -0.556,-2.636c-0.359,-2.891 -0.375,-5.169 -1.467,-7.795c-2.315,-5.563 -6.144,-9.842 -10.85,-13.502c-1.441,-1.121 -2.724,-2.786 -4.262,-3.714c-1.901,-1.147 -4.039,-1.575 -6.095,-2.377c-1.199,-0.468 -2.107,-1.231 -3.231,-1.824c-2.316,-1.224 -5.14,-2.167 -7.748,-2.353c-0.93,-0.066 -1.958,-0.193 -2.895,-0.082c-0.525,0.063 -1.569,0.233 -1.569,0.233c-0,-0 1.673,-0.164 2.512,-0.188c2.144,-0.062 4.419,-0.143 6.555,0c2.212,0.149 4.109,0.669 6.232,1.112c0.675,0.141 2.117,0.12 2.57,0.699c0.959,1.229 0.908,3.149 1.081,4.62c0.096,0.812 0.609,2.401 0.345,3.191c-0.161,0.482 -1.012,0.094 -1.519,0.094c-1.468,-0 -2.943,0.041 -4.411,-0c-5.041,-0.141 -10.083,-0.32 -15.126,-0.32c-1.797,-0 -4.379,-0.481 -6.119,0.07c-0.236,0.074 0.479,-0.13 0.718,-0.2c0.358,-0.105 2.121,-0.567 2.604,-0.676c2.283,-0.514 4.555,-0.99 6.776,-1.747c0.578,-0.197 1.702,-0.319 1.585,-0.918c-0.547,-2.806 -4.202,-1.309 -5.694,-0.695c-0.581,0.24 -1.132,0.547 -1.706,0.803c-0.713,0.319 -1.437,0.614 -2.153,0.923c-0.796,0.344 -1.591,0.69 -2.386,1.037c-1.301,0.569 -1.263,0.521 -2.615,1.062c-0.854,0.341 -1.666,0.667 -2.438,1.16c-0.353,0.226 -1.038,0.709 -1.038,0.709c0,0 0.383,-0.396 0.562,-0.604c0.516,-0.602 0.943,-1.155 1.553,-1.678c1.89,-1.62 4.052,-2.944 5.813,-4.705c0.586,-0.586 0.993,-1.382 1.616,-1.918c0.286,-0.246 0.581,-0.346 0.911,-0.501c0.015,-0.007 0.426,-0.119 0.358,-0.187c-0.241,-0.241 -2.148,0.188 -2.319,0.221c-1.932,0.385 -3.663,1.068 -5.527,1.627c-2.304,0.691 -3.908,2.744 -5.691,4.255c-3.436,2.912 -7.138,6.006 -9.359,9.985c-1.041,1.866 -2.211,3.397 -2.211,5.687" style="fill:none;stroke:#b441a5;stroke-width:10.42px;"/><path d="M94.474,80.469c-0,0.531 0.532,-0.633 0.617,-0.89c0.169,-0.506 -0.636,-1.573 -0.265,-1.945c0.704,-0.703 1.503,-0.417 2.024,0.104c0.362,0.362 1.467,-0.455 1.467,-0.455c-0,-0 -1.388,0.618 -1.053,0.952c0.188,0.189 0.911,-0.208 1.073,-0.28c0.155,-0.068 0.56,-0.134 0.441,-0.254c-0.13,-0.129 -0.644,0.125 -0.742,0.183c-0.908,0.543 -1.757,1.164 -2.145,2.189c-0.533,1.405 -0.379,3.092 -1.043,4.42c-0.957,1.913 -2.74,4.429 -2.74,6.474" style="fill:none;stroke:#b441a5;stroke-width:8.33px;"/><path d="M170.275,81.85c0.961,-0 0.474,1.615 0.64,2.28c0.171,0.682 0.844,1.309 1.161,1.943c0.469,0.938 0.538,2.083 0.85,3.019c0.065,0.197 0.627,1.478 0.705,1.478" style="fill:none;stroke:#b441a5;stroke-width:8.33px;"/><path d="M95.249,104.209l-0,0" style="fill:none;stroke:#b441a5;stroke-width:8.33px;"/><g opacity="0.77"><ellipse cx="136.5" cy="151.5" rx="126.5" ry="127.5" style="fill:#fff;"/><ellipse cx="136.5" cy="151.5" rx="126.5" ry="127.5" style="fill:#788cb0;fill-opacity:0.14;"/><ellipse cx="136.5" cy="151.5" rx="126.5" ry="127.5" style="fill:none;stroke:#0021ff;stroke-opacity:0.27;stroke-width:2.71px;"/></g><path d="M95.739,102.011c-0.471,-0.472 0.126,-1.43 0.126,-1.977c-0,-0.504 -0.034,-1.512 -0.034,-1.512l-0,0.53c-0,1.024 -0.055,0.97 -0.096,2.042c-0.081,2.11 -0.251,3.628 -1.171,5.468c-0.645,1.289 -1.767,2.585 -1.943,4.066c-0.43,3.625 2.148,8.174 3.576,11.376c0.868,1.948 2.001,3.602 3.228,5.341c0.056,0.078 1.17,1.446 1.464,1.199c1.063,-0.895 0.581,-3.425 0.511,-4.64c-0.222,-3.829 -0.801,-7.368 -1.645,-11.074c-0.357,-1.567 -0.881,-3.24 -1.014,-4.836c-0.032,-0.384 -0.265,-2.554 -0.269,-2.551c-0.387,0.387 -0.074,1.913 -0.031,2.369c0.23,2.422 0.805,4.799 1.443,7.138c0.799,2.929 1.672,5.986 3.176,8.654c1.861,3.303 4.044,6.364 5.746,9.769c0.718,1.435 0.997,3.092 1.568,4.589c0.537,1.407 1.574,2.761 2.429,3.996c0.223,0.321 1.182,1.269 1.182,1.636c-0,0.204 -0.314,-0.262 -0.482,-0.378c-0.691,-0.478 -1.154,-0.881 -1.741,-1.468c-1.17,-1.171 -2.27,-2.411 -3.447,-3.581c-1.312,-1.303 -3.515,-3.418 -4.067,-5.188c-0.352,-1.128 0.039,-2.232 -0.46,-3.385c-0.942,-2.174 -1.709,-3.837 -1.889,-6.28c-0.157,-2.116 0.054,-4.051 0.332,-6.14c0.053,-0.398 0.152,-0.786 0.202,-1.179c0.026,-0.209 -0.201,-0.631 0.009,-0.631c0.245,0 0.878,1.345 0.99,1.495c1.52,2.033 2.713,4.155 3.811,6.451c1.172,2.449 2.745,4.657 4.029,7.048c1.054,1.962 1.546,4.324 2.255,6.416c0.844,2.488 2.151,5.193 3.47,7.444c0.889,1.517 1.777,3.004 2.755,4.471c0.13,0.195 0.862,1.285 1.075,1.285" style="fill:none;stroke:#b441a5;stroke-width:8.33px;"/><path d="M112.864,145.891c1.598,2.396 4.39,5.426 6.858,7.071c1.194,0.796 2.576,1.312 3.663,2.306c4.345,3.973 7.968,8.74 12.292,12.746c1.618,1.498 3.603,2.548 5.263,4c0.694,0.608 1.409,1.2 2.079,1.82c0.022,0.02 0.726,0.734 0.729,0.73c0.27,-0.27 0,-2.173 0,-2.557c0,-2.254 0.236,-4.456 -0.598,-6.593c-0.381,-0.976 -0.46,-1.855 -1.304,-2.593c-1.807,-1.581 -4.491,-1.939 -6.418,-3.437c-1.772,-1.378 -3.016,-3.215 -4.402,-4.952c-1.772,-2.219 -4.463,-3.658 -6.167,-5.929c-1.879,-2.506 -4.16,-4.719 -6.277,-6.964c-0.688,-0.729 -1.459,-1.385 -2.136,-2.102c-0.208,-0.221 -0.521,-0.447 -0.662,-0.729c-0.069,-0.139 -0.345,-0.513 -0.235,-0.403c0.799,0.799 1.657,2.677 2.261,3.461c2.506,3.248 5.474,6.203 8.253,9.212c2.728,2.953 5.332,6.034 8.111,8.929c1.476,1.537 3.177,3.019 4.332,4.834c2.059,3.235 3.368,6.877 5.075,10.3c2.092,4.193 5.289,8.585 8.798,11.708c1.718,1.529 3.643,2.877 5.533,4.177c1.961,1.35 3.565,2.988 5.835,3.858c0.85,0.327 1.769,0.548 2.594,0.912c0.05,0.022 0.849,0.38 0.919,0.309c0.295,-0.295 -0.105,-0.833 -0.225,-1.233c-0.388,-1.295 -0.889,-2.573 -1.341,-3.85c-1.712,-4.831 -3.55,-9.018 -6.931,-12.908c-0.622,-0.716 -3.163,-3.945 -4.543,-3.388c-0.785,0.318 -1.245,2.033 -1.429,2.737c-0.799,3.058 0.187,5.583 2.591,7.488c0.284,0.225 2.491,1.856 2.829,1.687c0.602,-0.301 -0.118,-1.346 -0.287,-1.997c-0.367,-1.413 -0.988,-2.816 -1.669,-4.1c-2.335,-4.396 -6.306,-7.176 -9.636,-10.738c-1.065,-1.139 -1.858,-2.505 -2.775,-3.762c-0.144,-0.197 -0.982,-1.15 -1.045,-1.218c-0.231,-0.251 -0.723,-0.723 -0.723,-0.723c-0,0 0.707,0.358 1.081,0.484c0.914,0.306 1.673,0.582 2.616,0.808c2.409,0.578 5.159,1.033 7.132,2.671c3.277,2.72 6.396,6.026 10.041,8.265c2.234,1.372 4.669,2.296 7.042,3.403c1.297,0.605 2.868,2.071 4.304,2.21c0.187,0.019 -0.2,-0.327 -0.345,-0.447c-0.375,-0.315 -0.786,-0.586 -1.176,-0.883c-0.967,-0.735 -0.914,-0.73 -1.97,-1.331c-2.259,-1.284 -4.385,-2.613 -6.87,-3.444c-2.971,-0.993 -6.197,-0.163 -9.205,-0.909c-3.339,-0.829 -7.458,-2.277 -10.053,-4.665c-1.456,-1.34 -2.635,-2.932 -4.025,-4.321c-1.376,-1.376 -2.687,-2.83 -3.953,-4.324c-0.235,-0.276 -1.121,-1.278 -0.882,-1.756c0.848,-1.696 1.812,1.56 1.874,1.745c0.063,0.188 0.102,0.384 0.164,0.573c0.151,0.459 0.184,0.374 0.37,0.81c1.218,2.864 2.924,5.335 3.449,8.487c0.138,0.828 0.318,2.366 -0.291,3.022c-0.55,0.593 -1.859,0.009 -2.381,-0.237c-0.114,-0.054 0.182,-0.245 0.125,-0.358c-0.367,-0.735 -1.033,-1.422 -1.537,-2.069c-0.121,-0.156 -0.584,-0.941 -0.801,-0.941c-0.144,0 0.171,0.233 0.265,0.342c0.532,0.609 1.073,1.211 1.619,1.808c1.296,1.42 2.664,2.688 4.08,3.986c2.388,2.189 5.138,3.752 7.621,5.785c1.355,1.109 2.855,2.852 4.569,3.367c3.067,0.923 6.405,-1.455 8.922,-2.827c2.484,-1.354 5.615,-2.745 4.602,-6.125c-0.329,-1.094 -1.326,-0.985 -2.244,-1.481c-1.814,-0.98 -3.685,-1.7 -5.736,-2.239c-0.759,-0.2 -1.867,-0.872 -2.666,-0.872" style="fill:none;stroke:#b441a5;stroke-width:8.33px;"/><path d="M162.696,196.94c4.221,-0 6.35,4.096 9.171,6.487c7.797,6.609 12.487,15.543 16.416,24.973c1.63,3.912 4.472,10.155 1.102,13.524c-1.681,1.681 -2.489,-4.935 -2.715,-5.745c-1.851,-6.632 -1.556,-14.748 -4.691,-21.018c-1.96,-3.919 -5.234,-7.387 -8.075,-10.676c-0.858,-0.995 -2.134,-2.21 -3.411,-2.475c-0.64,-0.132 -2.512,-0.624 -1.859,-0.624c1.701,0 4.326,4.706 5.271,5.916c2.768,3.543 5.557,7.093 7.221,11.3c1.715,4.334 2.418,10.89 6.722,13.76c1.599,1.066 5.313,-0.372 6.879,-1.248c0.944,-0.528 2.499,-0.961 3.165,-1.865c0.571,-0.776 0.292,-1.49 1.078,-2.079c2.298,-1.724 7.48,-3.608 10.427,-3.952c4.729,-0.551 6.331,-1.453 10.718,0.009c0.939,0.313 1.937,0.61 2.497,1.17c0.144,0.145 1.248,1.355 1.248,1.249c0,-0.612 -1.992,-1.97 -2.402,-2.503c-1.245,-1.617 -2.757,-4.023 -3.641,-5.898c-5.544,-11.759 -16.626,-18.845 -27.77,-25.204c-3.913,-2.233 -7.527,-5.078 -11.452,-7.29c-0.024,-0.014 -5.555,-3.096 -5.175,-3.477c0.486,-0.485 1.941,0.192 2.433,0.438c2.176,1.088 4.214,3.017 6.317,4.318c0.65,0.402 1.727,0.664 2.437,0.99c10.754,4.951 21.991,9.242 28.685,19.282c1.918,2.878 4.065,5.703 5.608,8.79c0.315,0.629 1.434,2.45 0.754,3.13c-0.692,0.693 -3.321,0.856 -4.199,1.034c-3.162,0.642 -7.053,1.123 -9.965,2.579c-2.669,1.334 -5.062,2.869 -7.577,4.403c-0.267,0.163 -2.324,0.95 -2.41,0.693c-0.309,-0.927 0.973,-2.951 1.491,-3.592c3.207,-3.965 7.541,-5.891 11.42,-8.989c1.186,-0.947 2.236,-1.579 3.576,-2.249c0.416,-0.208 1.118,-0.457 1.524,-0.705c0.253,-0.154 1.141,-0.276 0.845,-0.276c-1.997,-0 -4.449,0.975 -6.58,1.082c-4.844,0.243 -8.97,-0.261 -13.119,2.748c-1.449,1.051 -3.922,2.94 -3.269,4.9c0.246,0.739 0.333,1.424 0.333,2.267c0,0.341 0,1.364 0,1.023c0,-5.812 4.018,-10.154 8.005,-13.856c1.607,-1.493 3.114,-2.632 4.892,-3.878c0.611,-0.428 1.918,-1.153 1.918,-1.153c-0,0 -1.351,0.413 -2.015,0.651c-1.596,0.572 -2.834,0.943 -4.517,1.382c-2.925,0.763 -6.897,1.039 -9.549,2.523c-1.052,0.588 -2.664,1.171 -3.362,2.219c-0.127,0.19 -0.803,1.349 -0.71,1.441c0.652,0.652 1.159,-1.437 1.735,-2.157c0.632,-0.791 1.263,-1.584 1.946,-2.331c0.38,-0.415 0.796,-0.795 1.193,-1.193c0.573,-0.572 6.583,-4.62 4.008,-6.337c-0.678,-0.452 -2.236,-0.156 -2.908,-0.156c-2.392,0 -7.903,-1.468 -9.826,0.455c-0.745,0.744 -1.647,6.053 -0.401,6.677c1.702,0.85 5.848,-2.285 6.03,-4.08c0.268,-2.642 -3.571,-9.068 -6.138,-9.85c-1.677,-0.512 -2.752,0.758 -3.999,1.858c-1.365,1.204 -1.412,1.098 -2.003,2.28c-0.777,1.554 -1.254,2.118 -1.476,3.747c-0.396,2.909 2.98,3.507 2.593,0.512c-0.13,-1.002 -0.85,-1.837 -1.356,-2.712c-0.381,-0.659 -0.852,-1.262 -1.267,-1.9c-1.531,-2.358 -1.429,-2.248 -3.067,-4.389c-1.357,-1.774 -3.27,-3.756 -4.272,-5.762c-0.482,-0.964 2.689,1.342 2.765,1.403c2.054,1.65 4.301,2.6 6.425,4.134c0.304,0.22 1.677,2.101 2.262,1.711c1.087,-0.725 1.019,-2.554 1,-3.621c-0.076,-4.429 -3.137,-8.232 -6.016,-11.399c-0.724,-0.796 -1.575,-1.96 -2.477,-2.561c-0.441,-0.295 -1.561,-0.312 -1.561,-0.312c0,-0 1.293,1.238 2.016,1.76c1.272,0.918 2.963,1.54 4.335,2.376c0.98,0.597 2.407,0.599 3.456,1.123c2.657,1.329 5.874,4.704 7.959,6.789c0.445,0.445 1.483,1.399 1.483,1.951" style="fill:none;stroke:#b441a5;stroke-width:8.75px;"/><path d="M165.568,90.005c0,3.406 0.77,6.576 1.496,9.892c0.246,1.125 0.981,1.607 1.593,2.439c0.324,0.441 0.96,1.332 0.96,1.332c0,-0 -0.33,-2.059 -0.659,-3.044c-0.113,-0.341 0.306,-1.079 -0.054,-1.079c-0.566,0 -0.412,1.955 -0.412,2.276c0,2.111 1.155,4.077 0.906,6.214c-0.136,1.174 -0.07,3.051 -0.483,4.118c-0.961,2.483 -3.408,4.835 -4.636,7.308c-1.684,3.391 -4.659,5.845 -7.293,8.449c-2.885,2.852 -5.222,6.266 -7.663,9.498c-0.948,1.256 -1.885,2.466 -2.824,3.719c-0.355,0.473 -0.751,0.908 -1.133,1.359c-0.182,0.216 -0.807,0.392 -0.607,0.592c0.307,0.307 2.12,-1.194 2.359,-1.37c1.975,-1.454 4.491,-3.386 5.585,-5.575c0.825,-1.65 2.448,-3.182 3.138,-4.845c2.804,-6.766 4.28,-13.726 5.85,-20.851c0.501,-2.277 0.736,-4.564 1.107,-6.845c0.047,-0.29 0.621,-2.195 0.387,-2.43c-0.046,-0.046 -1.697,3.153 -1.774,3.332c-1.364,3.187 -2.446,7.775 -4.667,10.631c-3.451,4.436 -7.717,8.224 -11.155,12.644c-1.374,1.767 -2.783,3.718 -4.379,5.314c-1.805,1.805 -3.505,4.223 -5.701,5.562c-0.813,0.496 -1.614,1.215 -2.4,1.608c-0.395,0.198 -1.252,0.436 -1.252,0.436c0,-0 0.768,0.055 0.98,0.326c0.642,0.823 1.682,1.148 2.395,1.861c1.668,1.668 2.814,4.019 4.898,5.061c0.519,0.26 0.892,1.839 1.632,1.469c1.749,-0.875 1.242,-5.343 1.428,-6.521c0.79,-4.984 2.337,-12.542 7.004,-15.505c1.599,-1.014 1.66,0.698 1.471,2.085c-0.166,1.219 -1.631,4.296 -3.061,4.296" style="fill:none;stroke:#b441a5;stroke-width:8.75px;"/><path d="M111.824,160.217c-0.152,-0.152 0.021,-0.39 0.077,-0.334c0.206,0.205 0.302,1.091 0.533,1.388c0.549,0.707 1.235,1.323 1.806,2.019c1.159,1.416 2.407,2.777 3.532,4.221c0.817,1.049 1.393,2.202 2.396,3.132c0.769,0.714 1.568,1.273 2.537,1.651c0.346,0.135 0.608,0.325 0.921,0.516c0.152,0.092 0.632,0.279 0.454,0.279c-0.185,-0 -0.808,-0.657 -0.814,-0.662c-0.728,-0.73 -1.358,-1.666 -2.058,-2.367c-0.347,-0.347 -1.1,-0.116 -1.443,-0.556c-0.369,-0.472 -0.738,-1.578 -1.381,-1.578" style="fill:none;stroke:#b441a5;stroke-width:8.75px;"/><path d="M134.992,143.438c-0,-0.035 0.008,-0.026 -0.026,-0.026" style="fill:none;stroke:#b441a5;stroke-width:8.75px;"/><path d="M143.873,162.373c0.048,0.048 0.224,0.129 0.284,0.129" style="fill:none;stroke:#b441a5;stroke-width:8.75px;"/><path d="M109.479,162.135c-1.38,0.69 -2.412,3.353 -3.317,4.644c-1.541,2.196 -3.67,3.979 -5.439,5.999c-4.208,4.81 -8.66,9.588 -13.18,14.079c-1.434,1.426 -3.826,3.089 -4.894,4.841c-1.471,2.413 -3.693,4.351 -5.331,6.676c-1.41,2 -2.433,4.369 -4.002,6.22c-3.596,4.243 -5.459,10.215 -8.039,15.096c-0.918,1.737 -2.065,3.628 -3.257,5.154c-0.4,0.512 -0.979,1.255 -1.245,1.788c-0.152,0.303 -0.794,0.635 -0.794,0.635l3.15,-0c2.184,-0 4.338,0.161 6.542,0.161c6.275,0 12.425,0.387 18.302,2.179c2.734,0.833 6.451,3.257 7.882,5.819c0.554,0.993 1.298,1.872 1.779,2.834c0.234,0.468 1.11,1.633 1.11,1.11c0,-17.049 4.244,-34.109 12.949,-48.964c0.739,-1.261 1.66,-2.428 2.425,-3.673c0.632,-1.028 1.209,-2.063 1.899,-3.043c1.45,-2.058 2.464,-4.412 3.935,-6.444c0.634,-0.876 2.053,-1.516 2.524,-2.457c0.266,-0.533 0.028,-1.326 0.293,-1.857c0.276,-0.552 1.575,-0.499 1.851,0.053c0.01,0.022 -1.65,1.678 -1.813,1.874c-1.452,1.742 -2.845,3.134 -3.817,5.245c-2.194,4.766 -2.858,10.472 -5.804,14.891c-1.411,2.117 -3.641,3.47 -5.291,5.386c-1.393,1.618 -2.366,3.736 -3.116,5.736c-1.559,4.156 -2.561,8.707 -3.386,13.064c-0.315,1.663 -0.213,3.188 -0.85,4.797c-0.751,1.899 -0.146,4.023 -0.58,5.992c-0.134,0.611 -0.316,2.159 -0.758,1.717c-0.921,-0.921 -1.43,-2.944 -1.85,-4.069c-1.914,-5.124 -1.733,-11.271 -0.94,-16.584c0.339,-2.269 0.873,-4.504 1.185,-6.782c0.057,-0.416 0.112,-0.834 0.139,-1.254c0.029,-0.442 0.397,-1.528 0,-1.33c-0.809,0.405 -1.203,4.648 -1.304,5.155c-0.726,3.628 -1.622,7.149 -2.281,10.785c-0.328,1.812 -1.626,3.104 -1.959,4.814c-0.172,0.882 0.183,1.454 0.37,2.199c0.063,0.253 -0.647,0.78 -0.414,0.663c2.835,-1.417 1.473,-5.821 1.391,-8.41c-0.197,-6.273 1.001,-10.774 5.133,-15.657c4.151,-4.907 8.801,-9.402 13.05,-14.234c2.132,-2.425 4.736,-4.834 6.095,-7.825c0.956,-2.103 3.256,-7.27 0.907,-9.299c-2.166,-1.871 -5.383,3.202 -6.076,4.33c-3.636,5.928 -4.645,11.969 -6.124,18.627c-0.497,2.237 -0.642,4.597 -1.334,6.782c-0.356,1.124 -0.458,1.012 -0.935,2.155c-0.106,0.256 -0.427,1.02 -0.294,0.778c1.118,-2.039 1.275,-4.93 1.738,-7.166c1.062,-5.126 1.23,-10.464 2.637,-15.527c0.578,-2.083 1.472,-4.065 2.043,-6.137c0.416,-1.509 0.275,-3.084 0.956,-4.528c0.182,-0.386 2.092,-2.515 1.621,-2.986c-0.322,-0.323 -1.681,0.985 -1.736,1.027c-2.347,1.786 -4.838,3.548 -7.408,4.996c-1.887,1.063 -4.196,0.151 -5.72,1.167c-5.487,3.658 -7.744,10.746 -11.578,15.859c-1.491,1.988 -2.902,3.772 -4.072,5.99c-0.4,0.759 -1.264,2.066 -0.957,2.988c0.223,0.67 1.424,-0.218 2.046,-0.553c2.06,-1.109 4.294,-2.052 6.28,-3.285c2.133,-1.323 4.875,-3.227 6.346,-5.286c2.224,-3.113 3.165,-6.712 5.95,-9.498c1.441,-1.441 3.894,-2.788 4.73,-4.738c0.098,-0.229 0.741,-3.775 0.348,-3.513c-0.666,0.445 -1.279,2.968 -1.439,3.528c-0.96,3.361 -1.702,6.741 -2.406,10.155c-0.979,4.745 -1.089,11.635 -4.114,15.744c-1.941,2.636 -5.112,4.383 -7.413,6.694c-2.372,2.382 -4.195,5.198 -5.569,8.245c-1.235,2.742 -1.655,5.64 -1.655,8.623c-0,0.712 -0.22,2.5 0.324,3.044c0.217,0.217 0.38,-0.506 0.446,-0.805c0.346,-1.561 0.519,-3.111 1.014,-4.65c1.305,-4.058 3.029,-7.97 4.447,-11.983c1.107,-3.131 2.482,-6.28 4.375,-9.014c1.491,-2.155 3.499,-3.926 4.934,-6.082c0.341,-0.512 2.722,-4.488 1.827,-5.084c-1.433,-0.956 -4.848,3.173 -5.569,3.86c-6.119,5.831 -10.622,12.675 -15.162,19.692c-1.402,2.166 -3.004,4.055 -4.112,6.402c-0.108,0.229 -0.733,1.472 -0.525,1.68c0.313,0.313 1.977,-0.276 2.251,-0.352c1.611,-0.443 2.77,-0.776 2.758,-2.63c-0.029,-4.768 -3.315,-9.017 -2.786,-13.936c0.19,-1.774 1.004,-4.021 1.726,-5.67c0.122,-0.276 0.763,-1.184 1.258,-0.854c1.998,1.332 -2.109,5.299 -2.736,6.036c-1.648,1.939 -3.451,3.876 -4.775,6.066c-1.257,2.076 -2.087,4.407 -3.611,6.312c-0.389,0.486 -2.408,3.566 -1.986,4.41c0.249,0.497 2.654,-0.167 2.672,-0.173c1.321,-0.407 3.255,-1.735 4.701,-1.012" style="fill:none;stroke:#b441a5;stroke-width:8.75px;"/><g><path d="M89.502,103.233c-7.12,28.128 56.72,83.206 79.269,105.756c8.935,8.936 16.399,40.696 16.399,40.696c0,-0 12.85,-16.247 18.85,-19.247c16.819,-8.409 27.198,10.549 23.026,-6.143c-10.606,-42.435 -71.565,-51.579 -100.001,-80.019c-5.009,-5.009 -15.201,-18.31 -21.66,-31.129c-6.166,-12.237 -8.715,-24.141 -8.943,-23.55c0,0 -5.524,8.04 -6.94,13.636Z" style="fill:none;stroke:#000;stroke-width:4.17px;"/><path d="M89.909,102.587c1.922,-6.519 8.063,-17.876 13.707,-23.858c18.067,-19.15 49.796,-26.788 71.707,22.02" style="fill:none;stroke:#000;stroke-width:4.17px;"/><path d="M88.394,102.58c1.569,-28.74 6.555,-40.476 13.6,-49.088c5.983,-7.314 16.746,-14.583 28.098,-16.326c10.04,-1.542 26.202,4.731 35.054,16.326c11.479,15.037 13.966,39.41 8.967,57.562c-2.126,7.719 -9.708,18.527 -13.809,23.391c-6.505,7.716 -16.896,19.469 -16.896,20.246" style="fill:none;stroke:#000;stroke-width:4.17px;"/><path d="M130.704,172.963c-9.014,13.187 -18.568,26.567 -22.246,41.274c-1.195,4.781 -5.107,28.7 -7.758,31.351c-1.537,1.537 -12.483,-11.174 -15.069,-12.036c-5.466,-1.822 -27.886,0.14 -31.069,-3.043c-1.557,-1.558 16.628,-33.146 18.172,-35.067c8.009,-9.964 21.205,-27.417 35.724,-38.216c2.541,-1.89 2.787,-2.646 3.798,-3.405" style="fill:none;stroke:#000;stroke-width:4.17px;"/><path d="M126.439,140.44c11.956,-11.958 37.226,-37.936 37.226,-57.065" style="fill:none;stroke:#000;stroke-width:4.17px;"/></g></g></svg>